<?xml version="1.0" standalone="no"?>
<!DOCTYPE svg PUBLIC "-//W3C//DTD SVG 20010904//EN"
 "http://www.w3.org/TR/2001/REC-SVG-20010904/DTD/svg10.dtd">
<svg version="1.0" xmlns="http://www.w3.org/2000/svg"
 width="512.000000pt" height="512.000000pt" viewBox="0 0 512.000000 512.000000"
 preserveAspectRatio="xMidYMid meet">
<metadata>
Created by potrace 1.15, written by Peter Selinger 2001-2017
</metadata>
<g transform="translate(0.000000,512.000000) scale(0.100000,-0.100000)"
fill="#000000" stroke="none">
<path d="M2265 4644 c-890 -121 -1610 -749 -1854 -1616 -55 -196 -74 -349 -75
-583 -1 -363 62 -653 209 -962 333 -701 994 -1172 1770 -1262 116 -14 374 -14
490 0 780 90 1444 567 1775 1272 141 303 204 592 204 942 0 368 -66 655 -224
982 -116 238 -257 431 -456 623 -349 337 -774 541 -1258 605 -144 18 -441 18
-581 -1z m-34 -1270 c135 -42 230 -118 284 -228 44 -88 59 -167 52 -272 -5
-94 -28 -153 -83 -213 -41 -46 -71 -64 -148 -91 l-50 -17 53 -6 c185 -22 295
-188 294 -447 0 -271 -134 -448 -398 -526 -53 -16 -120 -18 -602 -21 l-543 -4
0 926 0 926 538 -3 c506 -4 541 -5 603 -24z m1559 -194 l0 -110 -380 0 -380 0
0 110 0 110 380 0 380 0 0 -110z m-145 -285 c198 -57 333 -200 395 -415 15
-53 23 -116 27 -212 l6 -138 -483 0 -483 0 5 -64 c10 -122 88 -218 205 -252
40 -12 82 -15 152 -12 155 7 237 55 263 154 l12 44 159 0 159 0 -6 -47 c-32
-224 -150 -350 -391 -414 -108 -29 -323 -32 -440 -5 -197 44 -344 154 -424
317 -61 125 -76 191 -76 344 0 137 12 200 59 317 76 188 210 317 390 374 137
43 340 48 471 9z"/>
<path d="M1510 2865 l0 -216 289 3 c274 3 291 4 318 24 49 36 67 87 68 194 0
105 -14 144 -68 184 -27 20 -42 21 -318 24 l-289 3 0 -216z"/>
<path d="M1510 2124 l0 -255 298 3 c295 3 297 3 340 28 27 15 54 42 70 70 25
41 27 54 27 150 0 89 -3 111 -22 146 -28 52 -72 90 -121 104 -21 6 -154 10
-314 10 l-278 0 0 -256z"/>
<path d="M3317 2646 c-91 -33 -162 -109 -197 -212 -11 -32 -20 -59 -20 -61 0
-1 140 -3 310 -3 l310 0 0 29 c0 50 -32 129 -68 172 -53 62 -119 89 -217 88
-44 0 -97 -6 -118 -13z"/>
</g>
</svg>
