<?xml version="1.0" standalone="no"?>
<!DOCTYPE svg PUBLIC "-//W3C//DTD SVG 20010904//EN"
 "http://www.w3.org/TR/2001/REC-SVG-20010904/DTD/svg10.dtd">
<svg version="1.0" xmlns="http://www.w3.org/2000/svg"
 width="270.000000pt" height="270.000000pt" viewBox="0 0 270.000000 270.000000"
 preserveAspectRatio="xMidYMid meet">
<metadata>
Created by potrace 1.15, written by Peter Selinger 2001-2017
</metadata>
<g transform="translate(0.000000,270.000000) scale(0.100000,-0.100000)"
fill="#000000" stroke="none">
<path d="M1049 2544 c-255 -46 -482 -165 -672 -352 -193 -191 -316 -425 -362
-689 -19 -111 -19 -336 0 -447 75 -429 368 -795 771 -962 95 -39 135 -43 164
-14 18 18 20 33 20 156 l0 136 -37 -7 c-71 -13 -188 -7 -240 13 -83 32 -117
65 -168 164 -44 85 -66 111 -155 187 l-35 30 26 9 c66 26 153 -24 233 -133 71
-95 127 -127 225 -127 36 0 83 6 105 14 35 12 41 19 61 76 13 35 33 75 46 88
12 13 21 25 18 27 -2 2 -50 13 -107 25 -126 26 -232 75 -306 143 -112 102
-174 286 -163 489 5 111 28 180 88 265 38 55 39 59 28 94 -17 51 -14 176 6
244 l17 59 46 -7 c62 -9 162 -49 238 -95 l61 -37 89 19 c123 26 345 26 468 0
l89 -19 65 40 c76 46 168 82 233 92 l46 7 18 -64 c21 -72 24 -187 6 -239 -11
-34 -9 -39 33 -102 68 -102 81 -150 80 -302 0 -91 -6 -149 -18 -194 -62 -228
-217 -356 -483 -401 -40 -6 -73 -15 -73 -19 0 -5 9 -16 20 -26 11 -10 29 -42
40 -72 18 -48 20 -77 20 -283 0 -217 1 -231 20 -250 29 -29 69 -25 164 14 402
167 696 534 771 963 20 112 19 336 0 449 -46 262 -164 484 -359 680 -196 195
-418 313 -680 359 -110 19 -351 19 -457 -1z"/>
</g>
</svg>
