<?xml version="1.0" standalone="no"?>
<!DOCTYPE svg PUBLIC "-//W3C//DTD SVG 20010904//EN"
 "http://www.w3.org/TR/2001/REC-SVG-20010904/DTD/svg10.dtd">
<svg version="1.0" xmlns="http://www.w3.org/2000/svg"
 width="512.000000pt" height="512.000000pt" viewBox="0 0 512.000000 512.000000"
 preserveAspectRatio="xMidYMid meet">
<metadata>
Created by potrace 1.15, written by Peter Selinger 2001-2017
</metadata>
<g transform="translate(0.000000,512.000000) scale(0.100000,-0.100000)"
fill="#000000" stroke="none">
<path d="M2420 4814 c-568 -52 -1054 -277 -1446 -668 -356 -357 -573 -788
-651 -1296 -21 -141 -24 -490 -5 -625 61 -425 229 -818 489 -1143 366 -456
911 -763 1488 -837 153 -20 426 -22 570 -5 1107 130 1960 1033 2024 2140 38
669 -199 1300 -666 1766 -184 184 -378 322 -618 439 -220 108 -427 173 -670
210 -97 15 -424 27 -515 19z m-518 -1101 c210 -113 173 -411 -59 -479 -110
-32 -248 5 -313 84 -88 107 -73 280 32 365 91 73 236 86 340 30z m1543 -698
c207 -53 342 -196 407 -431 21 -76 22 -99 26 -606 l3 -528 -255 0 -256 0 0
458 c0 381 -3 468 -16 517 -21 81 -57 140 -106 173 -35 23 -54 28 -126 31
-102 4 -153 -13 -212 -71 -23 -22 -54 -65 -68 -96 l-27 -57 -3 -477 -3 -478
-250 0 -249 0 0 775 0 775 250 0 250 0 0 -110 c0 -60 4 -110 9 -110 4 0 21 18
37 41 61 88 170 165 275 193 72 20 239 20 314 1z m-1435 -790 l0 -775 -255 0
-255 0 0 775 0 775 255 0 255 0 0 -775z"/>
</g>
</svg>
