<svg xmlns="http://www.w3.org/2000/svg" viewBox="0 0 40 41.076"><path d="M21.771.538a3.244,3.244,0,0,0-3.644.044L1.8,11.952A3.243,3.243,0,0,0,.414,14.614V26.865a3.241,3.241,0,0,0,1.455,2.706L18.46,40.538a3.243,3.243,0,0,0,3.578,0l16.92-11.179a3.245,3.245,0,0,0,1.455-2.706V14.617a3.243,3.243,0,0,0-1.454-2.7Zm12.638,13.27-6.254,4.2-5.865-4.265-.038-8.389ZM18.01,5.361v8.21L12,17.774l-5.994-4.02ZM4.363,17.8l3.88,2.6-3.88,2.715Zm13.75,17.5-12.1-8.118,6.046-4.226,6.058,4.064Zm-2.3-14.971,3.919-2.741,4.565,3-4.046,2.718ZM22.388,35.3V27.02l5.789-3.88,6.233,4.1Zm13.75-12.048-4.109-2.7L36.138,17.8Z" transform="translate(-0.414 0)"/></svg>