<svg xmlns="http://www.w3.org/2000/svg" viewBox="0 0 40 40"><path d="M20,0A20.078,20.078,0,0,0,0,20c0,9.374,6.578,17.89,15.313,20V33.383a4.816,4.816,0,0,1-5.4-2.4c-.454-.767-1.26-1.6-2.1-1.537l-.206-2.335a4.82,4.82,0,0,1,4.321,2.674,2.592,2.592,0,0,0,1.5,1.286A3.15,3.15,0,0,0,15.4,30.9a5.493,5.493,0,0,1,1.378-2.818h0c-5.209-.777-7.286-3.541-8.11-5.722a9.177,9.177,0,0,1,1.425-8.8.314.314,0,0,0,.079-.243,7.672,7.672,0,0,1,.233-5.121c1.022.3,1.188-.3,4.438,1.671l.562.338c.235.14.161.06.4.042A16.973,16.973,0,0,1,20,9.653a17.046,17.046,0,0,1,4.255.605l.182.018c-.016,0,.049-.012.159-.077,4.06-2.459,3.915-1.656,5-2.01a7.8,7.8,0,0,1,.228,5.124c-.118.364,3.52,3.7,1.5,9.043-.824,2.182-2.9,4.946-8.109,5.723h0c.668,1.018,1.47,1.559,1.466,3.659V40C33.423,37.89,40,29.374,40,20A20.078,20.078,0,0,0,20,0Zm0,0"/></svg>