<svg xmlns="http://www.w3.org/2000/svg" xmlns:xlink="http://www.w3.org/1999/xlink" viewBox="0 0 32.414 20">
  <defs>
    <style>
      .cls-1 {
        fill: url(#linear-gradient);
      }
    </style>
    <linearGradient id="linear-gradient" x1="0.5" x2="0.5" y2="1" gradientUnits="objectBoundingBox">
      <stop offset="0" stop-color="#ff0080"/>
      <stop offset="1" stop-color="#c822ff"/>
    </linearGradient>
  </defs>
  <path id="Path_3220" data-name="Path 3220" class="cls-1" d="M1,6.75v20h9.662c.9,0,7.061-.182,7.061-5.811a4.925,4.925,0,0,0-3.649-5.068,4.3,4.3,0,0,0,2.7-4.155c0-1.512-.215-4.966-6.385-4.966ZM23.027,8.608v1.824h7.466V8.608ZM5.392,10.162H9.514c.389,0,3.007-.207,3.007,2.3a2.357,2.357,0,0,1-2.669,2.365H5.392Zm21.554,1.926c-5.646,0-6.824,4.9-6.824,7.027,0,6.3,5.169,7.027,6.824,7.027,4.464,0,5.731-2.889,6.25-4.493H29.953a3.121,3.121,0,0,1-2.872,1.757c-3.015,0-3.277-2.356-3.277-3.412H33.4C33.593,16.345,32,12.088,26.946,12.088Zm-.1,2.737a2.714,2.714,0,0,1,2.061.743A3.65,3.65,0,0,1,29.75,17.7H23.8a4.3,4.3,0,0,1,.169-.878,2.59,2.59,0,0,1,.473-.946,3.01,3.01,0,0,1,.946-.743A3.111,3.111,0,0,1,26.845,14.824ZM5.392,17.831h4.764c.946,0,3.176.148,3.176,2.872,0,2.639-2.808,2.635-3.243,2.635h-4.7Z" transform="translate(-1 -6.75)"/>
</svg>
