<svg xmlns="http://www.w3.org/2000/svg" xmlns:xlink="http://www.w3.org/1999/xlink" viewBox="0 0 20.505 20">
  <defs>
    <style>
      .cls-1 {
        fill-rule: evenodd;
        fill: url(#linear-gradient);
      }
    </style>
    <linearGradient id="linear-gradient" x1="0.5" x2="0.5" y2="1" gradientUnits="objectBoundingBox">
      <stop offset="0" stop-color="#ff0080"/>
      <stop offset="1" stop-color="#c822ff"/>
    </linearGradient>
  </defs>
  <path id="Path_3221" data-name="Path 3221" class="cls-1" d="M14.253,4a10.254,10.254,0,0,0-3.241,19.981c.514.093.7-.22.7-.494,0-.244-.01-.888-.013-1.742-2.853.617-3.454-1.375-3.454-1.375a2.73,2.73,0,0,0-1.138-1.5c-.931-.634.07-.621.07-.621A2.153,2.153,0,0,1,8.746,19.3a2.184,2.184,0,0,0,2.984.854,2.206,2.206,0,0,1,.651-1.372c-2.276-.257-4.669-1.138-4.669-5.066a3.974,3.974,0,0,1,1.055-2.753,3.7,3.7,0,0,1,.1-2.713s.861-.274,2.82,1.051a9.753,9.753,0,0,1,5.133,0c1.959-1.325,2.817-1.051,2.817-1.051a3.67,3.67,0,0,1,.1,2.713,3.956,3.956,0,0,1,1.051,2.753c0,3.938-2.4,4.8-4.679,5.06a2.441,2.441,0,0,1,.694,1.9c0,1.372-.01,2.476-.01,2.813,0,.274.184.594.7.494A10.255,10.255,0,0,0,14.253,4Z" transform="translate(-4 -4)"/>
</svg>
