<svg xmlns="http://www.w3.org/2000/svg" xmlns:xlink="http://www.w3.org/1999/xlink" viewBox="0 0 21.4 20">
  <defs>
    <style>
      .cls-1 {
        fill: url(#linear-gradient);
      }
    </style>
    <linearGradient id="linear-gradient" x1="0.5" x2="0.5" y2="1" gradientUnits="objectBoundingBox">
      <stop offset="0" stop-color="#ff0080"/>
      <stop offset="1" stop-color="#c822ff"/>
    </linearGradient>
  </defs>
  <path id="icons8-linkedin-2-filled" class="cls-1" d="M4.791,3.01C3.177,3.01,2,3.977,2,5.308A2.539,2.539,0,0,0,4.791,7.653,2.511,2.511,0,0,0,7.578,5.28,2.544,2.544,0,0,0,4.791,3.01ZM2.465,8.588A.467.467,0,0,0,2,9.053V22.545a.467.467,0,0,0,.465.465H7.117a.467.467,0,0,0,.465-.465V9.053a.467.467,0,0,0-.465-.465Zm6.978,0a.467.467,0,0,0-.465.465V22.545a.467.467,0,0,0,.465.465h4.187a.465.465,0,0,0,.465-.465V15.334a2.087,2.087,0,0,1,1.926-2.084,1.545,1.545,0,0,1,.334,0,2.087,2.087,0,0,1,1.926,2.084v7.211a.465.465,0,0,0,.465.465h4.187a.467.467,0,0,0,.465-.465V14.636c0-3.01-1.615-6.048-5.216-6.048a6.29,6.29,0,0,0-3.624,1.158V9.053a.467.467,0,0,0-.465-.465Z" transform="translate(-2 -3.01)"/>
</svg>
