<svg xmlns="http://www.w3.org/2000/svg" xmlns:xlink="http://www.w3.org/1999/xlink" viewBox="0 0 450 285.136">
  <defs>
    <style>
      .cls-1 {
        fill: url(#linear-gradient);
      }

      .cls-2 {
        filter: url(#Path_3215);
      }

      .cls-3 {
        filter: url(#Path_3214);
      }
    </style>
    <linearGradient id="linear-gradient" x1="0.5" x2="0.5" y2="1" gradientUnits="objectBoundingBox">
      <stop offset="0" stop-color="#ff0080"/>
      <stop offset="1" stop-color="#c822ff"/>
    </linearGradient>
    <filter id="Path_3214" x="231.528" y="0.103" width="218.472" height="285.033" filterUnits="userSpaceOnUse">
      <feOffset dy="3" input="SourceAlpha"/>
      <feGaussianBlur stdDeviation="5" result="blur"/>
      <feFlood flood-color="#6e0270" flood-opacity="0.831"/>
      <feComposite operator="in" in2="blur"/>
      <feComposite in="SourceGraphic"/>
    </filter>
    <filter id="Path_3215" x="0" y="0" width="248.191" height="285.107" filterUnits="userSpaceOnUse">
      <feOffset dy="3" input="SourceAlpha"/>
      <feGaussianBlur stdDeviation="5" result="blur-2"/>
      <feFlood flood-color="#6e0270" flood-opacity="0.831"/>
      <feComposite operator="in" in2="blur-2"/>
      <feComposite in="SourceGraphic"/>
    </filter>
  </defs>
  <g id="Group_5416" data-name="Group 5416" transform="translate(-283 -389.031)">
    <g class="cls-3" transform="matrix(1, 0, 0, 1, 283, 389.03)">
      <path id="Path_3214-2" data-name="Path 3214" class="cls-1" d="M98.1-91.438s18.776-1.216,26.429-3.648a54.138,54.138,0,0,0,19.221-10.322,42.815,42.815,0,0,0,11.657-15.928,52.013,52.013,0,0,0,3.915-20.467q0-22.78-14.95-34.348T99.528-187.72H61.8v96.282ZM215.922,40.083H185.311q-9.433,0-13.882-7.3L105.223-58.335a19.623,19.623,0,0,0-6.5-6.14q-3.47-1.869-10.767-1.869H61.8V40.083H27.45V-214.95H99.528q24.2,0,41.823,4.894t29.1,14.149a56.653,56.653,0,0,1,17,22.335,74.646,74.646,0,0,1,5.517,29.276,73.393,73.393,0,0,1-4.271,25.272,66.747,66.747,0,0,1-12.369,21.09,74,74,0,0,1-19.755,15.928,97.8,97.8,0,0,1-26.429,9.966,34.1,34.1,0,0,1,11.39,10.856Z" transform="translate(219.08 227.05)"/>
    </g>
    <g class="cls-2" transform="matrix(1, 0, 0, 1, 283, 389.03)">
      <path id="Path_3215-2" data-name="Path 3215" class="cls-1" d="M14.1-85.008V10.767A139.856,139.856,0,0,0,54.238,31.053a155.3,155.3,0,0,0,46.755,6.7q30.125,0,54.33-9.316A119.7,119.7,0,0,0,196.68,2.321a113.932,113.932,0,0,0,26.381-40.312q9.229-23.508,9.229-51.718,0-28.558-8.968-52.066a115.172,115.172,0,0,0-25.511-40.312,113.355,113.355,0,0,0-40.225-26.033Q133.9-217.35,104.65-217.35a163.222,163.222,0,0,0-27.513,2.177A126.444,126.444,0,0,0,53.629-208.9,110.968,110.968,0,0,0,33.6-198.979a122.9,122.9,0,0,0-17.239,13.147l9.577,15.324a9.937,9.937,0,0,0,5.833,4.44q3.57.958,7.923-1.654,4.179-2.438,9.577-5.921a83.524,83.524,0,0,1,13.147-6.7,105.855,105.855,0,0,1,18.284-5.485,120.371,120.371,0,0,1,24.988-2.264q21.07,0,38.136,6.878a80.665,80.665,0,0,1,29.08,19.677,87.085,87.085,0,0,1,18.458,31q6.443,18.2,6.443,40.835,0,23.508-6.7,42.054a88.073,88.073,0,0,1-19.155,31.518A81.643,81.643,0,0,1,141.741,3.627q-17.762,6.791-39.877,6.791A111.043,111.043,0,0,1,70.955,6.5,133.9,133.9,0,0,1,44.574-4.383V-59.236H83.406a7.363,7.363,0,0,0,5.311-1.915,6.253,6.253,0,0,0,2-4.7V-85.008Z" transform="translate(0.9 229.35)"/>
    </g>
  </g>
</svg>
