<svg xmlns="http://www.w3.org/2000/svg" viewBox="0 0 35 35.941"><path d="M19.1.471A2.839,2.839,0,0,0,15.913.51L1.63,10.458A2.838,2.838,0,0,0,.414,12.787V23.507a2.836,2.836,0,0,0,1.274,2.368l14.517,9.6a2.837,2.837,0,0,0,3.13,0L34.14,25.689a2.839,2.839,0,0,0,1.274-2.368V12.79a2.837,2.837,0,0,0-1.272-2.367ZM30.16,12.082l-5.472,3.674-5.132-3.732-.033-7.34ZM15.811,4.691v7.184l-5.259,3.678L5.307,12.035ZM3.869,15.575,7.264,17.85,3.869,20.225ZM15.9,30.89l-10.591-7.1,5.29-3.7,5.3,3.556Zm-2.011-13.1,3.429-2.4,3.994,2.625L17.772,20.4Zm5.752,13.1V23.643l5.066-3.395,5.454,3.586ZM31.673,20.348l-3.6-2.363,3.6-2.412Z" transform="translate(-0.414 0)"/></svg>