<svg xmlns="http://www.w3.org/2000/svg" viewBox="0 0 35 35"><path d="M17.5,0A17.569,17.569,0,0,0,0,17.5C0,25.7,5.756,33.153,13.4,35v-5.79a4.214,4.214,0,0,1-4.724-2.1c-.4-.671-1.1-1.4-1.837-1.345l-.18-2.043a4.217,4.217,0,0,1,3.781,2.34,2.268,2.268,0,0,0,1.316,1.126,2.756,2.756,0,0,0,1.722-.15,4.807,4.807,0,0,1,1.206-2.466h0c-4.558-.68-6.375-3.1-7.1-5.007a8.03,8.03,0,0,1,1.247-7.7A.275.275,0,0,0,8.9,11.65a6.713,6.713,0,0,1,.2-4.481c.894.264,1.039-.266,3.883,1.462l.492.3c.206.123.141.053.347.037A14.851,14.851,0,0,1,17.5,8.447a14.916,14.916,0,0,1,3.723.53l.159.016c-.014,0,.043-.01.139-.067,3.553-2.152,3.425-1.449,4.378-1.758a6.827,6.827,0,0,1,.2,4.483c-.1.318,3.08,3.233,1.316,7.913-.721,1.91-2.537,4.328-7.1,5.008h0c.584.891,1.286,1.364,1.283,3.2V35C29.245,33.154,35,25.7,35,17.5A17.568,17.568,0,0,0,17.5,0Zm0,0" transform="translate(0 0)"/></svg>