<svg xmlns="http://www.w3.org/2000/svg" xmlns:xlink="http://www.w3.org/1999/xlink" viewBox="0 0 261.592 272.462"><defs><style>.a{opacity:0.7;}.b{fill:url(#a);}.ao,.c{opacity:0.1;}.d{opacity:0.17;}.e{opacity:0.05;}.f{opacity:0.5;}.g{fill:url(#h);}.h{fill:url(#j);}.i{fill:url(#u);}.j{fill:url(#z);}.ah,.ak,.k{opacity:0.6;}.l{fill:url(#ar);}.ai,.m{opacity:0.07;}.n{fill:url(#aw);}.o{fill:url(#ax);}.p{fill:url(#ay);}.q{fill:url(#az);}.r{fill:url(#ba);}.s{fill:url(#bf);}.t{fill:url(#bh);}.u{fill:url(#bi);}.v{fill:url(#bj);}.w{fill:url(#bl);}.x{fill:url(#bm);}.y{fill:url(#bo);}.z{fill:url(#br);}.aa{fill:url(#bs);}.ab{fill:#ffae73;}.ac{fill:#ffc886;}.ad{fill:#f5f5f5;}.ae,.ak{fill:#6c63ff;}.af{fill:#e0e0e0;}.ag{fill:#fff;}.ah{fill:#3ad29f;}.aj{fill:url(#ch);}.al{fill:#bdbdbd;}.am{fill:url(#cj);}.an{fill:#f2f2f2;}.ap{fill:#69f0ae;}</style><linearGradient id="a" y1="0.5" x2="1" y2="0.5" gradientUnits="objectBoundingBox"><stop offset="0" stop-color="gray" stop-opacity="0.251"/><stop offset="0.54" stop-color="gray" stop-opacity="0.122"/><stop offset="1" stop-color="gray" stop-opacity="0.102"/></linearGradient><linearGradient id="h" x1="0.5" y1="1" x2="0.5" y2="0" xlink:href="#a"/><linearGradient id="j" x1="0" y1="0.5" y2="0.5" xlink:href="#a"/><linearGradient id="u" x1="0.5" y1="1" x2="0.5" y2="0" xlink:href="#a"/><linearGradient id="z" x1="0" y1="0.5" y2="0.5" xlink:href="#a"/><linearGradient id="ar" x1="0" y1="0.5" y2="0.5" xlink:href="#a"/><linearGradient id="aw" x1="0.5" y1="1" x2="0.5" y2="0" xlink:href="#a"/><linearGradient id="ax" x1="0" y1="0.5" y2="0.5" xlink:href="#a"/><linearGradient id="ay" x1="0.5" y1="0.999" x2="0.5" y2="-0.002" xlink:href="#a"/><linearGradient id="az" x1="0" y1="0.5" y2="0.5" xlink:href="#a"/><linearGradient id="ba" x1="0.001" y1="0.501" y2="0.501" xlink:href="#a"/><linearGradient id="bf" x1="0" y1="0.5" y2="0.5" xlink:href="#a"/><linearGradient id="bh" x1="0" y1="0.5" y2="0.5" xlink:href="#a"/><linearGradient id="bi" x1="0" y1="0.498" y2="0.498" xlink:href="#a"/><linearGradient id="bj" x1="0" y1="0.498" y2="0.498" xlink:href="#a"/><linearGradient id="bl" x1="0" y1="0.502" y2="0.502" xlink:href="#a"/><linearGradient id="bm" x1="0" y1="0.502" y2="0.502" xlink:href="#a"/><linearGradient id="bo" x1="0" y1="0.5" y2="0.5" xlink:href="#a"/><linearGradient id="br" x1="0" y1="0.499" y2="0.499" xlink:href="#a"/><linearGradient id="bs" x1="0" y1="0.501" y2="0.501" xlink:href="#a"/><linearGradient id="ch" x1="0.5" y1="1.002" x2="0.5" y2="0.003" xlink:href="#a"/><linearGradient id="cj" x1="0.5" y1="1" x2="0.5" y2="0" xlink:href="#a"/></defs><g class="a" transform="translate(0 45.864)"><path class="b" d="M452.663,328.911,366.37,308.13V470.777l86.293-22.588Z" transform="translate(-235.799 -244.179)"/><g class="c" transform="translate(130.571 63.951)"><path class="b" d="M452.663,328.911,366.37,308.13V470.777l86.293-22.588Z" transform="translate(-366.37 -308.13)"/></g><path class="b" d="M124.23,328.911l86.3-20.781V470.777l-86.3-22.139Z" transform="translate(-79.955 -244.179)"/><g class="d" transform="translate(44.275 63.951)"><path class="b" d="M124.23,328.911l86.3-20.781V470.777l-86.3-22.139Z" transform="translate(-124.23 -308.13)"/></g><path class="b" d="M366.37,241.227,411.1,204.18l86.293,22.139-44.727,35.689Z" transform="translate(-235.799 -177.276)"/><path class="b" d="M0,226.768l44.275,35.24,86.3-20.781L86.746,204.18Z" transform="translate(0 -177.276)"/><g class="e" transform="translate(0 26.904)"><path class="b" d="M0,226.768l44.275,35.24,86.3-20.781L86.746,204.18Z" transform="translate(0 -204.18)"/></g><g class="f" transform="translate(66.567 45.151)"><rect class="g" width="64.051" height="59.097" rx="4.5"/></g><rect class="b" width="62.575" height="57.664" rx="4.5" transform="translate(67.347 45.607)"/><rect class="h" width="10.553" height="9.498" rx="4.5" transform="translate(72.169 55.105)"/><rect class="b" width="41.951" height="1.055" rx="0.527" transform="translate(85.887 55.105)"/><rect class="b" width="41.951" height="1.055" rx="0.527" transform="translate(85.887 58.27)"/><rect class="b" width="56.723" height="1.055" rx="0.527" transform="translate(71.114 69.764)"/><rect class="b" width="56.723" height="1.055" rx="0.527" transform="translate(71.114 72.929)"/><rect class="b" width="56.723" height="1.055" rx="0.527" transform="translate(71.114 77.148)"/><rect class="b" width="32.713" height="1.055" rx="0.527" transform="translate(71.114 80.317)"/><rect class="b" width="56.723" height="1.055" rx="0.527" transform="translate(71.114 84.526)"/><rect class="b" width="56.723" height="1.055" rx="0.527" transform="translate(71.114 87.69)"/><rect class="b" width="56.723" height="1.055" rx="0.527" transform="translate(71.114 91.914)"/><rect class="b" width="32.713" height="1.055" rx="0.527" transform="translate(71.114 95.078)"/><g class="f" transform="translate(76.232 58.805)"><rect class="i" width="64.051" height="59.097" rx="4.5"/></g><rect class="b" width="62.575" height="57.664" rx="4.5" transform="translate(77.013 59.264)"/><rect class="h" width="10.553" height="9.498" rx="4.5" transform="translate(81.835 68.762)"/><rect class="b" width="41.951" height="1.055" rx="0.527" transform="translate(95.556 68.762)"/><rect class="b" width="41.951" height="1.055" rx="0.527" transform="translate(95.556 71.927)"/><rect class="j" width="56.723" height="1.055" rx="0.527" transform="translate(80.78 83.417)"/><rect class="j" width="56.723" height="1.055" rx="0.527" transform="translate(80.78 86.585)"/><rect class="j" width="56.723" height="1.055" rx="0.527" transform="translate(80.78 90.805)"/><rect class="b" width="32.713" height="1.055" rx="0.527" transform="translate(80.78 93.97)"/><rect class="j" width="56.723" height="1.055" rx="0.527" transform="translate(80.78 98.182)"/><rect class="j" width="56.723" height="1.055" rx="0.527" transform="translate(80.78 101.347)"/><rect class="j" width="56.723" height="1.055" rx="0.527" transform="translate(80.78 105.57)"/><rect class="b" width="32.713" height="1.055" rx="0.527" transform="translate(80.78 108.735)"/><g class="f" transform="translate(113.479 66.453)"><rect class="i" width="55.497" height="65.205"/></g><rect class="b" width="52.611" height="62.714" transform="translate(115.186 67.504)"/><g class="f" transform="translate(134.613 75.901)"><path class="i" d="M620.454,410.985V409.41h-5.72v1.575H610.71v7.737h13.757v-7.737Zm-5.007-1.009h4.277v1h-4.277Z" transform="translate(-610.71 -409.41)"/></g><rect class="b" width="12.595" height="7.085" transform="translate(135.194 77.736)"/><path class="b" d="M389.65,342.76V344.6h.656v-1.312h3.935V344.6h.656V342.76Z" transform="translate(-250.782 -266.467)"/><rect class="b" width="36.997" height="1.575" transform="translate(123.059 95.018)"/><rect class="b" width="36.997" height="1.575" transform="translate(123.059 105.382)"/><rect class="b" width="36.997" height="1.575" transform="translate(123.059 108.136)"/><rect class="b" width="15.614" height="1.575" transform="translate(123.059 102.627)"/><g class="k" transform="translate(148.38 102.627)"><rect class="b" width="11.675" height="1.575"/></g><rect class="l" width="11.675" height="1.575" transform="translate(136.046 114.566)"/><path class="b" d="M124.23,366.44V486.166l86.3,22.139V389.484Z" transform="translate(-79.955 -281.708)"/><path class="b" d="M452.663,485.717,366.37,508.305V389.484l86.293-23.044Z" transform="translate(-235.799 -281.708)"/><g class="m" transform="translate(130.571 84.732)"><path class="b" d="M452.663,485.717,366.37,508.305V389.484l86.293-23.044Z" transform="translate(-366.37 -366.44)"/></g><g class="m" transform="translate(182.526 154.763)"><path class="b" d="M512.15,572.427v39.307l34.338-9.487V562.94Z" transform="translate(-512.15 -562.94)"/></g><rect class="n" width="25.45" height="24.452" transform="translate(171.703 74.746)"/><rect class="o" width="24.652" height="23.354" transform="translate(172.102 75.345)"/><g class="f" transform="translate(179.194 78.249)"><path class="p" d="M743.213,417.19V416h-4.359v1.2H735.8v5.888h10.467V417.19Zm-3.813-.763h3.272v.763H739.4Z" transform="translate(-735.8 -416)"/></g><g class="k" transform="translate(179.636 79.639)"><rect class="q" width="9.58" height="5.389"/></g><g class="k" transform="translate(182.43 78.538)"><path class="r" d="M511.88,349.06v1.4h.5v-1h2.994v1h.5v-1.4Z" transform="translate(-511.88 -349.06)"/></g><g class="k" transform="translate(180.185 89.219)"><rect class="q" width="8.881" height="1.197"/></g><rect class="b" width="15.172" height="1.197" transform="translate(176.842 91.415)"/><g class="f" transform="translate(111.369)"><rect class="n" width="32.973" height="27.086"/></g><rect class="b" width="32.143" height="26.124" transform="translate(111.754 0.513)"/><rect class="s" width="32.143" height="5.827" transform="translate(111.754 0.513)"/><g class="c" transform="translate(111.754 0.513)"><rect class="s" width="32.143" height="5.827"/></g><rect class="t" width="27.022" height="3.393" transform="translate(114.316 8.454)"/><rect class="u" width="19.723" height="1.151" transform="translate(114.316 14.409)"/><rect class="v" width="12.805" height="1.151" transform="translate(114.316 16.394)"/><rect class="v" width="16.904" height="1.151" transform="translate(114.316 18.379)"/><rect class="w" width="19.723" height="1.151" transform="translate(114.316 20.361)"/><rect class="x" width="6.593" height="1.151" transform="translate(114.316 22.346)"/><g class="f" transform="translate(159.849 20.339)"><rect class="i" width="40.871" height="33.569"/></g><rect class="y" width="39.841" height="32.378" transform="translate(160.327 20.974)"/><rect class="t" width="39.841" height="7.221" transform="translate(160.327 20.974)"/><rect class="b" width="33.49" height="4.205" transform="translate(163.498 30.814)"/><rect class="z" width="24.445" height="1.429" transform="translate(163.498 38.195)"/><rect class="aa" width="15.874" height="1.429" transform="translate(163.498 40.654)"/><rect class="z" width="20.952" height="1.429" transform="translate(163.498 43.116)"/><rect class="z" width="24.445" height="1.429" transform="translate(163.498 45.575)"/><rect class="aa" width="8.176" height="1.429" transform="translate(163.498 48.035)"/><rect class="b" width="9.523" height="1.269" transform="translate(165.245 32.243)"/><g class="c" transform="translate(43.148 86.315)"><path class="b" d="M121.07,431.42l48.341,12.2,38.854-31.626V392.566L121.972,370.88Z" transform="translate(-121.07 -370.88)"/></g><g class="c" transform="translate(130.343 86.315)"><path class="b" d="M452.928,431.42l-48.345,12.2L365.73,411.993V392.566l86.293-21.686Z" transform="translate(-365.73 -370.88)"/></g><path class="b" d="M44.275,366.44,0,403.038l86.293,21.686,44.278-35.24Z" transform="translate(0 -281.708)"/><path class="b" d="M452.663,366.44l44.727,36.6L411.55,424.724l-45.18-35.24Z" transform="translate(-235.799 -281.708)"/><g class="m" transform="translate(130.571 84.732)"><path class="b" d="M452.663,366.44l44.727,36.6L411.55,424.724l-45.18-35.24Z" transform="translate(-366.37 -366.44)"/></g></g><path class="ab" d="M454.435,326.147,368.88,305.54V466.8l85.555-22.4Z" transform="translate(-237.414 -196.648)"/><path class="ab" d="M128.83,326.147l85.552-20.607V466.8l-85.552-21.95Z" transform="translate(-82.916 -196.648)"/><path class="ac" d="M366.88,239.923l45.059-37.443,85.555,21.95-45.059,36.1Z" transform="translate(-236.127 -130.318)"/><path class="ac" d="M7.66,226.876l43.9,34.941,85.552-20.607L93.661,204.48Z" transform="translate(-4.93 -131.605)"/><g class="f" transform="translate(68.01 90.253)"><rect class="i" width="63.502" height="58.591" rx="4.5"/></g><rect class="ad" width="62.037" height="57.169" rx="4.5" transform="translate(68.787 90.709)"/><rect class="ae" width="10.464" height="9.416" rx="4.5" transform="translate(73.566 100.125)"/><rect class="af" width="41.591" height="1.048" rx="0.524" transform="translate(87.17 100.125)"/><rect class="af" width="41.591" height="1.048" rx="0.524" transform="translate(87.17 103.261)"/><rect class="af" width="56.239" height="1.048" rx="0.524" transform="translate(72.522 114.655)"/><rect class="af" width="56.239" height="1.048" rx="0.524" transform="translate(72.522 117.795)"/><rect class="af" width="56.239" height="1.048" rx="0.524" transform="translate(72.522 121.979)"/><rect class="af" width="32.435" height="1.048" rx="0.524" transform="translate(72.522 125.119)"/><rect class="af" width="56.239" height="1.048" rx="0.524" transform="translate(72.522 129.292)"/><rect class="af" width="56.239" height="1.048" rx="0.524" transform="translate(72.522 132.432)"/><rect class="af" width="56.239" height="1.048" rx="0.524" transform="translate(72.522 136.616)"/><rect class="af" width="32.435" height="1.048" rx="0.524" transform="translate(72.522 139.756)"/><g class="f" transform="translate(77.594 103.792)"><rect class="n" width="63.502" height="58.591" rx="4.5"/></g><rect class="ag" width="62.037" height="57.169" rx="4.5" transform="translate(78.371 104.248)"/><rect class="ae" width="10.464" height="9.416" rx="4.5" transform="translate(83.15 113.664)"/><rect class="af" width="41.591" height="1.048" rx="0.524" transform="translate(96.753 113.664)"/><rect class="af" width="41.591" height="1.048" rx="0.524" transform="translate(96.753 116.8)"/><rect class="af" width="56.239" height="1.048" rx="0.524" transform="translate(82.106 128.194)"/><rect class="af" width="56.239" height="1.048" rx="0.524" transform="translate(82.106 131.334)"/><rect class="af" width="56.239" height="1.048" rx="0.524" transform="translate(82.106 135.518)"/><rect class="af" width="32.435" height="1.048" rx="0.524" transform="translate(82.106 138.658)"/><rect class="af" width="56.239" height="1.048" rx="0.524" transform="translate(82.106 142.831)"/><rect class="af" width="56.239" height="1.048" rx="0.524" transform="translate(82.106 145.971)"/><rect class="af" width="56.239" height="1.048" rx="0.524" transform="translate(82.106 150.155)"/><rect class="af" width="32.435" height="1.048" rx="0.524" transform="translate(82.106 153.295)"/><g class="f" transform="translate(114.523 111.376)"><rect class="i" width="55.023" height="64.646"/></g><rect class="ag" width="52.162" height="62.176" transform="translate(116.216 112.417)"/><g class="f" transform="translate(135.475 120.739)"><path class="n" d="M622.792,408.095V406.53h-5.685v1.565H613.13v7.673h13.639v-7.673Zm-4.99-.994h4.277v.994H617.8Z" transform="translate(-613.13 -406.53)"/></g><rect class="ae" width="12.488" height="7.024" transform="translate(136.053 122.563)"/><path class="ae" d="M391.97,339.88V341.7h.649v-1.3h3.9v1.3h.652V339.88Z" transform="translate(-252.275 -218.749)"/><rect class="af" width="36.68" height="1.561" transform="translate(124.021 139.695)"/><rect class="af" width="36.68" height="1.561" transform="translate(124.021 149.97)"/><rect class="af" width="36.68" height="1.561" transform="translate(124.021 152.703)"/><rect class="af" width="15.478" height="1.561" transform="translate(124.021 147.24)"/><rect class="ah" width="11.576" height="1.561" transform="translate(149.125 147.24)"/><rect class="ae" width="11.576" height="1.561" transform="translate(136.897 159.076)"/><path class="ac" d="M128.83,363.36v118.7l85.552,21.95L215.537,386.2Z" transform="translate(-82.916 -233.861)"/><path class="ac" d="M454.435,481.614l-85.555,22.4V386.2l85.555-22.845Z" transform="translate(-237.414 -233.861)"/><path class="ai" d="M513.42,567.579v38.968l34.043-9.405V558.17Z" transform="translate(-330.441 -359.243)"/><rect class="i" width="25.233" height="24.242" transform="translate(172.248 119.598)"/><rect class="ad" width="24.441" height="23.155" transform="translate(172.643 120.19)"/><g class="f" transform="translate(179.679 123.044)"><path class="aj" d="M744.509,414.2V413h-4.323v1.19H737.16v5.838h10.375V414.2Zm-3.781-.756h3.243v.756h-3.243Z" transform="translate(-737.16 -413)"/></g><rect class="ak" width="9.498" height="5.342" transform="translate(180.113 124.445)"/><path class="ak" d="M513.16,346.13v1.386h.5v-.991h2.969v.991h.492V346.13Z" transform="translate(-330.274 -222.772)"/><g class="k" transform="translate(180.659 133.946)"><rect class="ae" width="8.806" height="1.187"/></g><rect class="al" width="15.04" height="1.187" transform="translate(177.344 136.124)"/><rect class="i" width="25.233" height="24.242" transform="translate(148.06)"/><rect class="ad" width="24.441" height="23.155" transform="translate(148.455 0.595)"/><g class="f" transform="translate(155.49 3.464)"><path class="am" d="M676.639,78.657V77.47h-4.323v1.187H669.29v5.838h10.375V78.657Zm-3.781-.756H676.1v.756h-3.243Z" transform="translate(-669.29 -77.47)"/></g><rect class="ak" width="9.498" height="5.342" transform="translate(155.925 4.847)"/><path class="ak" d="M445.29,10.55v1.386h.5v-.991h2.969v.991h.492V10.55Z" transform="translate(-286.592 -6.79)"/><g class="k" transform="translate(156.47 14.348)"><rect class="ae" width="8.806" height="1.187"/></g><rect class="al" width="15.04" height="1.187" transform="translate(153.156 16.526)"/><g class="f" transform="translate(112.431 45.49)"><rect class="n" width="32.692" height="26.854"/></g><rect class="an" width="31.869" height="25.899" transform="translate(112.812 46)"/><rect class="ae" width="31.869" height="5.777" transform="translate(112.812 46)"/><rect class="ao" width="31.869" height="5.777" transform="translate(112.812 46)"/><rect class="af" width="26.79" height="3.364" transform="translate(115.353 53.872)"/><rect class="af" width="19.552" height="1.144" transform="translate(115.353 59.774)"/><rect class="af" width="12.695" height="1.144" transform="translate(115.353 61.741)"/><rect class="af" width="16.758" height="1.144" transform="translate(115.353 63.709)"/><rect class="af" width="19.552" height="1.144" transform="translate(115.353 65.679)"/><rect class="af" width="6.54" height="1.144" transform="translate(115.353 67.647)"/><g class="f" transform="translate(160.494 65.655)"><rect class="i" width="40.522" height="33.283"/></g><rect class="ag" width="39.499" height="32.104" transform="translate(160.968 66.282)"/><rect class="ae" width="39.499" height="7.16" transform="translate(160.968 66.282)"/><rect class="ad" width="33.205" height="4.17" transform="translate(164.115 76.04)"/><rect class="af" width="24.235" height="1.415" transform="translate(164.115 83.357)"/><rect class="af" width="15.738" height="1.415" transform="translate(164.115 85.798)"/><rect class="af" width="20.771" height="1.415" transform="translate(164.115 88.236)"/><rect class="af" width="24.235" height="1.415" transform="translate(164.115 90.677)"/><rect class="af" width="8.104" height="1.415" transform="translate(164.115 93.115)"/><rect class="ap" width="9.441" height="1.258" transform="translate(165.847 77.455)"/><path class="ao" d="M125.69,427.784l47.928,12.092,38.522-31.355V389.261l-85.555-21.5Z" transform="translate(-80.895 -236.693)"/><path class="ao" d="M454.71,427.784l-47.928,12.092L368.26,408.521V389.261l85.555-21.5Z" transform="translate(-237.015 -236.693)"/><path class="ac" d="M49.557,363.36,5.66,399.641l85.552,21.5,43.9-34.937Z" transform="translate(-3.643 -233.861)"/><path class="ac" d="M454.435,363.36l44.346,36.281-85.106,21.5L368.88,386.2Z" transform="translate(-237.414 -233.861)"/></svg>