<svg xmlns="http://www.w3.org/2000/svg" viewBox="0 0 1844.997 985.27"><defs><style>.a{fill:#09f;}.b{fill:#e8a723;}.c{fill:#46c86d;}.d{fill:#e84354;}.e{fill:#554fe8;}</style></defs><g transform="translate(12996.161 -2061.74)"><path class="a" d="M0,15A15,15,0,0,1,15,0H30V15A15,15,0,0,1,0,15Z" transform="translate(-11366.423 2958)"/><path class="b" d="M0,15A15,15,0,0,1,15,0H30V15A15,15,0,0,1,0,15Z" transform="translate(-12961.838 2461.531) rotate(99)"/><path class="b" d="M0,15A15,15,0,0,1,15,0H30V15A15,15,0,0,1,0,15Z" transform="translate(-12568.604 2560.531) rotate(99)"/><path class="b" d="M0,15A15,15,0,0,1,15,0H30V15A15,15,0,0,1,0,15Z" transform="translate(-11229.261 2669.531) rotate(99)"/><path class="c" d="M0,15A15,15,0,0,1,15,0H30V15A15,15,0,0,1,0,15Z" transform="matrix(-0.998, 0.07, -0.07, -0.998, -11951.878, 3044.917)"/><path class="c" d="M0,15A15,15,0,0,1,15,0H30V15A15,15,0,0,1,0,15Z" transform="matrix(-0.998, 0.07, -0.07, -0.998, -11420.413, 2486.917)"/><path class="d" d="M0,15A15,15,0,0,1,15,0H30V15A15,15,0,0,1,0,15Z" transform="matrix(-0.995, -0.105, 0.105, -0.995, -12829.65, 2776.486)"/><path class="e" d="M0,15A15,15,0,0,1,15,0H30V15A15,15,0,0,1,0,15Z" transform="translate(-12704.628 2187.621) rotate(21)"/><path class="e" d="M0,15A15,15,0,0,1,15,0H30V15A15,15,0,0,1,0,15Z" transform="translate(-11181.159 2257.259) rotate(-91)"/><path class="e" d="M0,15A15,15,0,0,1,15,0H30V15A15,15,0,0,1,0,15Z" transform="translate(-11668.193 2790.259) rotate(-91)"/><path class="d" d="M0,15A15,15,0,0,1,15,0H30V15A15,15,0,0,1,0,15Z" transform="matrix(1, -0.017, 0.017, 1, -11699.661, 2062.264)"/><path class="a" d="M0,15A15,15,0,0,1,15,0H30V15A15,15,0,0,1,0,15Z" transform="translate(-12603.11 2988.868) rotate(121)"/></g></svg>