<svg width="18" height="20" viewBox="0 0 18 20" fill="none" xmlns="http://www.w3.org/2000/svg">
<path d="M9 0.0500488C6.243 0.0500488 4 2.4052 4 5.30005C4 8.1949 6.243 10.55 9 10.55C11.757 10.55 14 8.1949 14 5.30005C14 2.4052 11.757 0.0500488 9 0.0500488ZM9 8.45005C7.346 8.45005 6 7.03675 6 5.30005C6 3.56335 7.346 2.15005 9 2.15005C10.654 2.15005 12 3.56335 12 5.30005C12 7.03675 10.654 8.45005 9 8.45005ZM18 20V18.9501C18 14.8981 14.859 11.6 11 11.6H7C3.14 11.6 0 14.8981 0 18.9501V20H2V18.9501C2 16.0552 4.243 13.7 7 13.7H11C13.757 13.7 16 16.0552 16 18.9501V20H18Z" fill="#2E3A59"/>
</svg>
