<svg xmlns="http://www.w3.org/2000/svg" viewBox="0 0 21.864 21.867"><defs><style>.a{fill:#3eb890;}.b,.c{fill:#e01765;}.b{opacity:0.36;}.d{fill:#e8a723;}.e{fill:#70cadb;}</style></defs><g transform="translate(10061.001 -2108)"><rect class="a" width="7.287" height="21.868" rx="3" transform="translate(-10053.714 2108)"/><rect class="b" width="7.289" height="21.862" rx="3" transform="translate(-10039.139 2115.289) rotate(90)"/><path class="c" d="M0,0H7.289a0,0,0,0,1,0,0V4.287a3,3,0,0,1-3,3H3a3,3,0,0,1-3-3V0A0,0,0,0,1,0,0Z" transform="translate(-10053.714 2115.289) rotate(90)"/><path class="d" d="M0,0H7.289a0,0,0,0,1,0,0V4.287a3,3,0,0,1-3,3H3a3,3,0,0,1-3-3V0A0,0,0,0,1,0,0Z" transform="translate(-10046.425 2122.579) rotate(-90)"/><path class="e" d="M3,0H4.287a3,3,0,0,1,3,3V7.289a0,0,0,0,1,0,0H0a0,0,0,0,1,0,0V3A3,3,0,0,1,3,0Z" transform="translate(-10053.714 2108)"/></g></svg>