<svg xmlns="http://www.w3.org/2000/svg" width="210" height="210" viewBox="0 0 210 210"><g transform="translate(-6820 14926)"><rect width="210" height="210" transform="translate(6820 -14926)" fill="#fff"/><g transform="translate(-412 90)"><g transform="translate(7269 -14973)" fill="none" stroke="#204056" stroke-width="12"><rect width="86" height="123" stroke="none"/><rect x="6" y="6" width="74" height="111" fill="none"/></g><line x2="38" transform="translate(7367.5 -14856.5)" fill="none" stroke="#204056" stroke-width="11"/><path d="M6.083-35.921A24.211,24.211,0,0,1,11.165-44.2a21.573,21.573,0,0,1,7.623-5.159,24.866,24.866,0,0,1,9.394-1.771,18.177,18.177,0,0,1,8.586,1.964,26.968,26.968,0,0,1,6.275,4.427L36.806-37.73a15.962,15.962,0,0,0-3.85-2.618,10.876,10.876,0,0,0-4.774-1,10.863,10.863,0,0,0-4.928,1.116,11.544,11.544,0,0,0-3.889,3.2,15.277,15.277,0,0,0-2.58,5.082c-.616,2-1.289,11.032,0,16.5S25.485-8.1,27.951-8.1a10.833,10.833,0,0,0,5.618-1.427,19.173,19.173,0,0,0,4.007-3.793l6.237,6.853A19.991,19.991,0,0,1,27.951.924,25.343,25.343,0,0,1,18.788-.732a21.393,21.393,0,0,1-7.546-4.89,23.147,23.147,0,0,1-5.121-8.047C4.864-16.876,4.851-32.661,6.083-35.921Z" transform="translate(7288 -14877)" fill="#204056" stroke="#204055" stroke-width="1.125"/></g></g></svg>