<svg xmlns="http://www.w3.org/2000/svg" xmlns:xlink="http://www.w3.org/1999/xlink" width="2034.852" height="959.901" viewBox="0 0 2034.852 959.901"><defs><linearGradient id="a" x1="0.5" x2="0.5" y2="1" gradientUnits="objectBoundingBox"><stop offset="0" stop-color="#ffdf96"/><stop offset="1" stop-color="#ffb277"/></linearGradient></defs><g transform="translate(-25.683 -1224.973)"><g transform="translate(26.025 1836.751)"><g transform="translate(33.951 0)"><path d="M35.413.255A24.5,24.5,0,0,1,47.947,1.586c8.27,3.54,10.62,13.392,10.507,21.4-.122,8.619-1.937,18.033,4.561,24.978,2.987,3.193,6.7,5.636,9.635,8.887A42.058,42.058,0,0,1,80.064,68.57c3.343,7.841,4.984,17.063,1.927,25.289-2.692,7.242-9.464,13.779-8,22.014,1.526,8.591,10.115,15.159,15.485,21.557,6.077,7.241,11.672,16.5,12.591,25.993.881,9.1-3.047,18.305-9.076,25.185-12.045,13.747-30.151,20.486-48.408,20.444-7.751-.018-16.527-.371-23.216-4.572a12.86,12.86,0,0,1-4.387-4.78,15.52,15.52,0,0,0-4.242-4.282,25.378,25.378,0,0,1-8.081-10.883c-6.625-16.537-1.33-37,7.943-51.68,2.2-3.479,4-6.827,2.929-10.974-1.114-4.329-3.852-8.233-6.273-11.954-2.393-3.678-5.125-7.186-6.995-11.162A25.519,25.519,0,0,1,.1,85.679C.747,77.116,4.413,69.213,9.6,62.327c5-6.633,10.868-12.981,10.881-21.672.014-9.212-6.093-17.407-3.491-26.773C18.07,10,20.234,6.024,23.721,3.7,27.065,1.469,31.48.739,35.413.255Z" transform="translate(0 0)" fill="#dde3e9"/><path d="M2.024,1.732A2.105,2.105,0,0,1,4.7.076C6.211.5,6.182,1.922,6.142,3.188A42.161,42.161,0,0,0,7.506,14.636C9.434,22.486,13,29.718,15.819,37.258s4.144,15.313,2.49,23.285C16.749,68.06,14.3,75.382,12.7,82.908c-1.407,6.633-2.9,13.628-.761,20.245,2.062,6.369,6.619,11.555,9.9,17.311,6.794,11.914,9.808,25.132,10.212,38.733a73.025,73.025,0,0,1-1.434,18.885c-.836,3.567-1.96,8.388-4.991,10.85-1.4,1.136-3.788,1.528-4.965-.153-1.1-1.577-.136-4.019.215-5.7a87.127,87.127,0,0,0,1.46-22.105,80.428,80.428,0,0,0-3.424-21.14,71.77,71.77,0,0,0-8.93-17.592c-3.778-5.656-7.7-11.323-9.266-18.025C-.866,97.41.422,90.484,2.145,83.808c1.822-7.061,4.208-13.92,6.675-20.791a36.769,36.769,0,0,0,1.929-20.035C8.127,29.14,1.109,16.147,2.024,1.732Z" transform="translate(30.657 13.25)" fill="#c5cfd6"/></g><g transform="translate(46.844 15.82)"><path d="M133.056,2.314c5.189,1.574,10.343,4.113,14.042,8.1,7.866,8.468,5.452,21.266,1.11,30.614-4.674,10.061-11.756,20.174-7.764,31.718,1.835,5.307,4.921,10.113,6.662,15.461a53.864,53.864,0,0,1,2.56,17.63c-.189,10.953-3.106,22.641-11.025,30.71-6.972,7.1-18.373,11.255-20.98,21.691-2.72,10.887,3.93,23.078,6.882,33.392,3.341,11.673,5.058,25.461,1.148,37.1-3.747,11.15-13.2,19.915-23.911,24.855-21.392,9.871-46.229,8.352-67.679-1.21C25,248.3,14.859,243.317,9.2,234.9A16.46,16.46,0,0,1,6.552,227a19.862,19.862,0,0,0-2.739-7.24,32.493,32.493,0,0,1-3.784-17c.9-22.878,17.88-44.151,36.5-56.569,4.413-2.942,8.288-5.937,9.212-11.365.965-5.666-.2-11.679-1.1-17.312-.881-5.567-2.251-11.112-2.36-16.757a32.8,32.8,0,0,1,4.332-16.5c5.266-9.72,13.73-17.093,23.453-22.478,9.365-5.187,19.6-9.585,24.188-19.788,4.859-10.814,1.983-23.623,9.965-33.269,3.305-3.994,7.941-7.541,13.265-8.455C122.6-.61,128.175.834,133.056,2.314Z" transform="translate(0 0)" fill="#dde3e9"/><path d="M75.611,1.186a2.693,2.693,0,0,1,4-.542c1.547,1.292.773,2.948.067,4.416A54.385,54.385,0,0,0,75.32,19.243C73.492,29.489,73.9,39.867,73.286,50.218s-3.115,20.188-9.207,28.7c-5.743,8.023-12.429,15.349-18.22,23.364-5.1,7.064-10.5,14.506-11.436,23.414-.9,8.574,1.744,17.068,2.595,25.561,1.762,17.582-1.587,34.712-8.2,50.923-3.07,7.528-6.587,14.937-11.517,21.461-2.838,3.757-6.666,8.837-11.5,10.143-2.23.6-5.238-.191-5.741-2.787-.474-2.435,1.934-4.8,3.221-6.593a112.136,112.136,0,0,0,13.224-25.235c3.315-8.6,6.053-17.451,6.994-26.665a92.84,92.84,0,0,0-1.31-25.382c-1.484-8.636-3.137-17.365-1.478-26.067,1.685-8.839,6.8-16.309,12.3-23.257,5.814-7.35,12.184-14.165,18.654-20.951,6.305-6.612,10.6-13.616,12.7-22.554C68.495,36.63,67.032,17.662,75.611,1.186Z" transform="translate(46.844 19.01)" fill="#c5cfd6"/></g><g transform="translate(0 80.231)"><path d="M19.667,0c8.712,0,16.372,4.574,21.65,11.064C47.5,18.662,48.743,27.94,51.252,37c1.248,4.506,3.4,8.98,7.158,12.042,3.422,2.784,7.767,3.342,11.863,4.7A27.552,27.552,0,0,1,87.682,71c3.185,9.748-.189,19.578.392,29.456.533,9.072,9.565,14.732,16.832,19.081,7.165,4.288,13.62,8.3,15.778,16.657,2.289,8.861,3.056,18.751-.113,27.5-5.277,14.574-20.722,20.992-35.646,21.987-13.544.9-30.573-.515-40.744-10.251-6.086-5.826-8.29-13.975-8.017-22.082a66.63,66.63,0,0,1,2.482-14.908c.924-3.453,2.172-6.891,2.528-10.459.945-9.493-7.913-11.316-15.454-13.922-9.582-3.312-16.29-9.569-20.955-18.285C.421,87.66-1.4,78.549,1.2,69.614A30.468,30.468,0,0,1,8.217,57.391c1.44-1.55,3.47-2.842,4.77-4.47,1.213-1.521.949-3.491.531-5.271C11.584,39.423,5.561,32.612,3.406,24.4c-1.945-7.412-.8-16.636,6.047-21.417A17.994,17.994,0,0,1,19.667,0Z" transform="translate(0 0)" fill="#c5cfd6"/><path d="M4.933.939c9.234,9.742,11.744,22.959,12.481,35.77.413,7.184-.017,14.761,2.114,21.728,1.823,5.964,6.1,10.523,10.5,14.831,8.869,8.673,18.761,17.491,21.355,30.043,1.522,7.367.495,14.975,2.6,22.261a61,61,0,0,0,9.375,18.72c3.3,4.5,7.594,7.951,11.2,12.149,1.1,1.281,2.675,3.168,2.221,4.977-.531,2.119-3.256,2.789-5.189,2.456-4.507-.776-8.3-5.038-11.248-8.137A70.121,70.121,0,0,1,49.4,140.865a62.139,62.139,0,0,1-7.1-19.325c-1.18-7.066-.593-14.431-3.286-21.213C34.475,88.916,23.481,82.182,15.532,73.288,5.628,62.206,7.105,48.413,8.12,34.78c.557-7.492,1.111-15.952-2.711-22.792C3.949,9.377.7,6.943.069,3.975-.506,1.256,2.631-1.492,4.933.939Z" transform="translate(26.606 20.494)" fill="#afb9c5"/></g><path d="M0,0C0,55.713,9.092,84.905,57.091,84.905S114.182,55.713,114.182,0Z" transform="translate(40.989 263.216)" fill="url(#a)"/></g><g transform="translate(1557.869 1224.972)"><path d="M17.166,33.747C25.973,26.6,35.989,20.9,45.692,15.093,61.277,5.772,76.606-.475,94.818.028c29.619.818,56.325,10.82,80.651,26.716,12.68,8.286,24.91,18.005,34.518,29.776,4.275,5.24,8.194,10.76,11.986,16.359,2.343,3.458,4.568,6.992,6.76,10.549,1.319,2.141,4.143,5.179,4.257,7.8a4.263,4.263,0,0,1-6.113,4.026c-2.409-1.3-3.889-5.317-5.346-7.581-3.353-5.21-6.967-10.226-10.7-15.163a132.029,132.029,0,0,0-19.467-20.931,190.2,190.2,0,0,0-50.4-30.569c-2.216,17.587-12.287,30.62-27.479,39.441C91.857,73.008,70.169,79.4,45.259,77.565,29.082,76.373,15.942,69.116,4.278,58.373c-2.206-2.031-5-5.177-4.108-8.541.855-3.238,5.056-5.8,7.431-7.939C10.716,39.087,13.91,36.388,17.166,33.747Z" transform="translate(253.024 335.383) rotate(-30)" fill="#dde3e9"/><path d="M175.588,389.52c-3.376-27.023-6.951-53.891-13.514-80.386-3.868-15.613-8.831-30.9-13.338-46.331q.605,2.9,1.07,5.839c-1.569-4.6-4.85-9-6.735-13.592-2.1-5.116-3.793-10.43-5.4-15.712-3.133-10.31-6.089-20.638-9.617-30.829-3.931-11.355-8.459-22.52-12.678-33.775-3.581-9.552-6.933-19.58-11.6-28.695-2.542-4.968-4.821-10.3-7.316-15.368-.835-1.695-8-20.627-7.944-20.627,1.187,0,5.632,8.414,6.369,9.65,2.152,3.61,3.98,7.367,5.828,11.132a49.605,49.605,0,0,1,4.069-12.965c.616-1.27,4.942-10.633,6.348-10.634.7,0-5.8,17.679-6.625,19.231a32.071,32.071,0,0,0-2.353,4.2c-.7,2.166-.342,1.624.236,3.577,1.059,3.58,3.407,7.084,4.884,10.521.81,1.835,2.806,8.195,4.751,11.042,5.005,9.779,8.558,21.706,12.365,32.253a69.078,69.078,0,0,1,4.22-15.063c.467-1.159,4.186-11.91,5.255-11.911,1.2,0-3.417,17.217-4.044,18.7-1.164,2.763-2.993,5.438-3.961,8.25-1.063,3.086.8,5.862,1.981,9.017,4.354,11.607,8.17,23.329,11.655,35.21,20.312-8.9,24.373-35.026,25.715-54.294.967-13.887-1.174-28.026-4.538-41.493-4.489-17.973-12.053-35.322-20.08-52.025a185.714,185.714,0,0,0-37.746-52.069c-8.119-7.965-17.367-14.867-26.761-21.333A56.9,56.9,0,0,0,61.427,3.513a53.139,53.139,0,0,0-7.4-1.8c-1.9-.332-5.79-2.092-7.37-1.641-12.9,3.574-22.6,9.508-30.13,20.529C9.4,31.036,4.97,43.5,2.5,55.735A111.592,111.592,0,0,0,1.42,96.786c1.781,10.454,4.859,20.7,7.943,30.849,10.966,36.091,30.208,74.776,64.781,94.549,11.191,6.4,23.611,10.137,36.363,12.112,3,.465,6.006.908,9.048,1.076,2.05.114,8.792-1.251,10.274-.37,2.033,1.208,3.195,8.07,4.079,10.557,6.718,18.906,12.724,38.028,18.172,57.321,5.8,20.526,10.4,41.253,14.224,62.212,1.628,8.914,3.214,17.814,4.563,26.778.315,2.085-.018,8.645,2.019,10.486a2.464,2.464,0,0,0,3.879-.742c1.336-2.481-.831-9.325-1.176-12.091" transform="matrix(0.391, -0.921, 0.921, 0.391, 0, 163.109)" fill="#4cd7d1" opacity="0.6"/><path d="M70.519,89.834a113.7,113.7,0,0,1-19.3-1.616,103.666,103.666,0,0,1-19-5.173c-6.26-2.369-14.225-5.711-20.3-10.566a26.615,26.615,0,0,1-7.253-8.459A18.514,18.514,0,0,1,2.809,52.881a2.093,2.093,0,0,1-.643.1,2.2,2.2,0,0,1-2.16-1.47c-.058-.49.323-.859,1.075-1.041,1.835-.44,1.907-.572,2.6-1.833.063-.116.132-.242.208-.378a19.558,19.558,0,0,0,1.089-2.5c.23-.6.467-1.223.733-1.8A49.906,49.906,0,0,1,10.5,35.639a66.234,66.234,0,0,1,14.546-14.5C36.662,12.625,47.14,7.115,57.082,4.3A119.25,119.25,0,0,1,89.553,0a130.125,130.125,0,0,1,24.982,2.39A65.155,65.155,0,0,1,130.6,7.416a38.108,38.108,0,0,1,13.2,10.229,37.669,37.669,0,0,1,8.017,15.849,18.707,18.707,0,0,1,.294,2.167,15.288,15.288,0,0,0,.4,2.605l.079.283c.433,1.561.433,1.561,1.663,1.7.344.038.772.085,1.332.178,2.911.485,5.9.993,8.877,1.51a217.925,217.925,0,0,1,23.077,4.949,62.47,62.47,0,0,1,7.284,2.611c.28.12.7.284,1.187.474,2.757,1.075,7.888,3.076,8.62,5.048a2.161,2.161,0,0,1,.073,1.935,1.415,1.415,0,0,1-1.239.485,9.2,9.2,0,0,1-3.735-1.141c-1.308-.736-2.669-1.432-4.045-2.07a65.7,65.7,0,0,0-10.741-3.833c-3.938-1.056-8.014-1.859-11.956-2.635l-.132-.026c-3.384-.666-6.991-1.323-11.352-2.067-2.146-.365-4.345-.729-6.285-1.05l-.039-.006a5.736,5.736,0,0,1-.558-.137,3.734,3.734,0,0,0-.891-.178.459.459,0,0,0-.359.121.482.482,0,0,0-.086.387,63.619,63.619,0,0,0-10.014-.829c-1.234-.037-2.5-.076-3.728-.14-4.727-.247-8.7-.411-12.7-.411-1.352,0-2.674.02-3.927.059a116.114,116.114,0,0,0-11.989.928,60.223,60.223,0,0,0-6.9,1.36c-.278.071-.747.161-1.29.266-1.892.365-5.057.976-5.591,1.829.091-.142.673-.214,1.729-.214.857,0,1.907.047,2.725.087l.651.033c.594.031,1.059.055,1.278.055h.062c2.833-.107,5.665-.4,8.3-.69a130.278,130.278,0,0,1,14.443-.837q.492,0,.984,0c-.014.66-1.874,1.69-3.231,2.442-.5.278-.933.517-1.167.68a49.818,49.818,0,0,0-5.493,4.431c-3.368,3.155-6.761,6.516-8.76,9.723a10.162,10.162,0,0,1,3.128-2.11c.644-.345,1.252-.67,1.622-.929,1.844-1.293,3.539-2.6,5.038-3.895,1.583-1.363,3.026-2.822,4.229-4.07.439-.455.929-1.07,1.449-1.721a14.05,14.05,0,0,1,3.548-3.564.038.038,0,0,1,.019,0,1,1,0,0,1,.28.118l.161.081a1.661,1.661,0,0,0,.659.2.5.5,0,0,0,.212-.043,3.22,3.22,0,0,0,.863-.981,1.527,1.527,0,0,1,.253-.331,4.78,4.78,0,0,1,1.706-.249,23.411,23.411,0,0,1,3.007.28c.691.094,1.343.183,1.865.208,3.325.153,6.7.344,9.96.529l.118.007q1.766.1,3.533.2c.175.009.362.014.591.014l.314,0h.011l.328,0c.812,0,1.514.059,1.886.786.459.9-.138,2.994-.533,4.38-.095.332-.176.619-.233.849A27.493,27.493,0,0,1,146.589,65.3a49.2,49.2,0,0,1-20.765,13.745A193.525,193.525,0,0,1,98.38,86.9,140.656,140.656,0,0,1,70.519,89.834ZM99.787,33.149c-.133,0-.219.029-.254.086a.272.272,0,0,0-.022.223c.322,1.158,6.223,4.159,10.532,6.35a43.477,43.477,0,0,1,4.227,2.278,29.779,29.779,0,0,0-7.881-6.319C105.685,35.394,100.976,33.149,99.787,33.149Zm41.624-7.713c-.01.058.579,1.093,1.2,2.189l.018.032.03.052c.5.878,1.016,1.786,1.252,2.24,1.055,2.024,2.1,4.2,3.187,6.659a40.6,40.6,0,0,0-5.69-11.172Z" transform="translate(198.915 230.238) rotate(-30)" fill="#4cd7d1"/></g><g transform="translate(308.638 2159.669) rotate(180)"><path d="M134.1,0c4.145,0,8.277.083,12.417.3,3.156.165,7.978-.489,10.648,1.478,2.774,2.043,2.583,6.227,2.15,9.181-2.291,15.622-7.883,29.475-19.58,40.543C121.72,68.544,101.072,77.2,76.64,81.059,59.477,83.768,43.633,80.007,31,67.8a190.536,190.536,0,0,0-19.748,55.246,132.4,132.4,0,0,0-1.958,28.394c.2,6.16.536,12.306,1.2,18.437.286,2.664,1.644,6.7.6,9.214a4.2,4.2,0,0,1-7.2.722c-1.542-2.1-1.259-6.219-1.575-8.7-.525-4.125-1.011-8.253-1.359-12.4C.389,152.005-.029,145.279,0,138.546c.071-15.127,3.433-30.313,8.032-44.673,8.823-27.548,23.139-52.032,45.4-71.241C67.126,10.82,82.794,6.036,100.57,3.468,111.637,1.87,122.885,0,134.1,0" transform="translate(171.274 250.324) rotate(180)" fill="#4cd7d1"/><path d="M5.526,1.953a10.854,10.854,0,0,1,3.5-.939A56.681,56.681,0,0,1,19.946,0,201.59,201.59,0,0,1,53.728,3.036c7.032,1.215,15.532,5.3,22.527,3.082,12.186-3.868,24.5-3.678,36.063,1.844,10.57,5.049,18.594,14.639,23.277,25,.706,1.564,3.573,7.321,4.384,11.2.347.794.68,1.592.981,2.4.853,2.3,1.617,4.645,2.328,6.992.3,1,1.067,3.212.16,3.64a66.549,66.549,0,0,1,3.8,8.274c3.111,8.273,6.512,17.349,7.605,26.118a40.86,40.86,0,0,1,.044,9.766c-.186,1.608-.109,4.841-1.2,6.064-2.314,2.594-3.5-1.038-3.241-2.767,1.992-13.184-1.854-25.565-6.412-37.958-2.947-8.014-7.79-15.346-13.215-21.985a55.49,55.49,0,0,0-15.118-13.17A236.375,236.375,0,0,0,92.691,20.127C87.564,17.8,82.43,15.539,77.16,13.536c-1.172-.446-3.016-1.589-4.315-1.593-2.748-.01-6.642,2.018-9.3,2.772-8.731,2.482-17.573,5.66-26.6,6.928a34.3,34.3,0,0,1-16.623-2.03,15.559,15.559,0,0,1-2.616-1.426,37.967,37.967,0,0,1-11.13-6.3,44.391,44.391,0,0,1-5.216-5.62,2.943,2.943,0,0,1-.688-1.85C.321,4.231.083,4.013.03,3.758c-.394-1.883,3.2-1.917,5.5-1.805" transform="translate(182.985 288.385) rotate(180)" fill="#89c5cc"/><path d="M66.8,0c44.577,0,74.6,36.364,88.8,74.159,5.351,14.246,6.605,29.89,8.668,44.848.662,4.8.417,12.115,2.342,16.392.7,1.551,2.3,2.108,1.535,4.221a3.4,3.4,0,0,1-2.739,2.317c-2.8.522-6.769-2.568-9.173-3.788-19.94-10.122-33.041-25.772-43.728-44.921C105.879,81.36,99.157,69.039,95.221,56.009A130.042,130.042,0,0,1,90.6,31.41a94.787,94.787,0,0,1-.618-9.853C90,18.311,91.49,16.6,92.562,13.77c-14.874-5.7-31.663-7.252-46.73-1.346A60.149,60.149,0,0,0,13.839,41.7,56.291,56.291,0,0,0,9.91,52.494c-.619,2.429-.649,5.581-1.8,7.777C5.33,65.6-.524,62.036.038,57.079,1.605,43.254,9.419,29.374,19.407,19.761,32,7.639,49.078,0,66.8,0" transform="translate(168.347 141.997) rotate(180)" fill="#4cd7d1"/></g><g transform="translate(1956.569 2100.275) rotate(180)"><path d="M3.091,1.006C8.311-.13,14.075-.043,19.392.05A101.446,101.446,0,0,1,94.138,35.373C109.653,53.666,113.92,76.409,116.985,99.4c.3,2.283.434,4.551.606,6.838.037.491.092.929.151,1.341,1.205,1.073,1.838,2.325,1.124,3.7a152.463,152.463,0,0,1,6.829,17.845c5.673,18.018,11.444,36.379,7.889,55.326a263.747,263.747,0,0,0-4.667-31.344c-.12-.589-.25-1.173-.385-1.755-.014-.061-.027-.123-.041-.184a68.347,68.347,0,0,0-2.87-9.186c-.012-.033-.024-.065-.037-.1-.154-.395-.318-.787-.48-1.18-.335-.813-.679-1.624-1.044-2.431q-.185-.412-.356-.832c-1.7-4.155-2.421-8.837-3.946-13.137q-.547-1.466-1.146-2.92l-.072-.17c-1.08-2.607-2.273-5.182-3.535-7.731-.686-.513-1.052-1.787-1.643-2.944A18.378,18.378,0,0,1,112,107.915q-1.114-2.147-2.231-4.293l.067.025q-1.123-2.058-2.245-4.1-.246-.448-.495-.9l-.8-1.43c-2.5-4.452-5.146-8.816-7.9-13.125-.982-1.538-3.327-3.743-3.777-5.47-.017-.065-.02-.124-.03-.186A98.166,98.166,0,0,0,73.512,56.286c1,1.072,3.113,4.712,3.673,5.432,1.713,2.206,3.573,4.26,5.439,6.339A135.041,135.041,0,0,1,92.13,79.685a220.811,220.811,0,0,1,14.2,23.225c.041.047.086.091.125.139,2.174,2.669,3.542,6.7,5.107,9.756-6.193-2.857-13.04-4.718-19.4-7.255A159.658,159.658,0,0,1,73.715,96.9,206.066,206.066,0,0,1,50.121,81.924C41.555,76.631,34.356,69.346,28,61.7,20.484,52.657,13.595,43.533,9.334,32.55A87.271,87.271,0,0,1,4.618,15.833c-.043-.248-.1-.517-.156-.8A54.655,54.655,0,0,1,1.82,9c-1.19-3.262-4-6.85,1.271-8" transform="translate(213.584 267.949) rotate(180)" fill="#4cd7d1"/><path d="M.445,46.474c-1.152,3.8-.191,7.142,4.355,6.2,1.363-.282,2.771-.735,4.117-1.116,7.482-2.117,14.9-4.443,22.416-6.425C45.8,41.32,60.481,39.474,75.3,37.764a221.649,221.649,0,0,1,35.132-1.641c14.424.637,28.5,3.442,42.464,6.669A317.646,317.646,0,0,1,195.877,55.6a283.426,283.426,0,0,1,44.684,22.387c35.6,21.568,67.254,48.506,94.937,79.438q5.977,6.68,11.915,13.4c2.985,3.371,5.8,6.888,8.763,10.271,2.455,2.8,5.328,1.2,3.438-2.077-2.17-3.769-5.893-7.155-8.722-10.423q-3.788-4.373-7.58-8.743c-2.963-3.416-5.943-6.814-8.984-10.16a504.133,504.133,0,0,0-45.334-44C276.839,95.29,263.715,86.19,250.247,77.532c-15.477-9.948-31.908-20.355-49.624-26.244a6.391,6.391,0,0,0-.648-.792c3.443-3.108-7.12-13.572-9.026-15.613a170.133,170.133,0,0,0-15.616-14.542,74.064,74.064,0,0,0-14.5-9.562,90.169,90.169,0,0,0-24.753-7.61C121.239.6,105.656-.788,90.516.47c-27.631,2.3-54.839,10.847-76.774,28.6C8.126,33.612,2.561,39.5.445,46.474Z" transform="translate(360.225 182.533) rotate(180)" fill="#c1dee2"/><path d="M89.347,0c-11.482,0-21.7,1.493-32.28,6.061A143.444,143.444,0,0,0,31.532,20.9C20.165,28.894,11.213,38.194,4.946,50.516,1.2,57.877-1.544,68.294.97,76.323,3.932,85.78,12.064,93.667,22.775,92,29.4,90.972,35.469,86.583,40.5,82.453A67.092,67.092,0,0,0,55.325,64.972c6.493-10.764,10.308-22.932,15.824-34.18,2.617-5.338,5.146-10.715,8.281-15.788a25.463,25.463,0,0,1,5.558-6.868c1.26-1,6.57-2.727,4.539-4.97,29.777.391,56.156,23.282,61.872,51.615.532,2.641.949,5.3,1.388,7.96.277,1.678.165,7.865,1.664,8.937,3.3,2.364,1.916-4.818,1.774-5.852q-.55-4.009-1.168-8.009A66.679,66.679,0,0,0,135.62,19.5C123.321,7.67,106.725,0,89.347,0Z" transform="translate(229.687 106.922) rotate(180)" fill="#4cd7d1" opacity="0.6"/></g><g transform="translate(-49.054 1116.104)"><path d="M158.762,69.3c-6.3,1.37-13.253,1.265-19.668,1.152C104.687,69.983,70.9,53.76,48.911,27.839,30.192,5.771,25.044-21.666,21.346-49.4c-.367-2.754-.524-5.49-.731-8.249-.044-.592-.111-1.12-.182-1.618-1.454-1.295-2.217-2.8-1.356-4.463a183.907,183.907,0,0,1-8.24-21.527C3.993-106.994-2.97-129.143,1.319-152A318.121,318.121,0,0,0,6.95-114.188c.145.71.3,1.415.465,2.117.017.074.032.148.049.222a82.439,82.439,0,0,0,3.463,11.081c.015.04.029.079.044.117.186.476.384.95.579,1.423.4.98.819,1.959,1.259,2.932q.223.5.429,1C15.292-90.28,16.159-84.632,18-79.445q.66,1.769,1.382,3.523c.028.068.057.137.086.205,1.3,3.145,2.743,6.252,4.265,9.326.827.619,1.269,2.155,1.983,3.551a22.169,22.169,0,0,1,1.644,3.166q1.345,2.59,2.692,5.178l-.081-.03q1.355,2.483,2.708,4.945.3.541.6,1.083l.968,1.725c3.014,5.371,6.209,10.635,9.528,15.834,1.184,1.855,4.014,4.515,4.556,6.6.02.078.024.149.037.224C55.566-14.042,63.856-4.752,73.8,2.61c-1.2-1.294-3.756-5.684-4.431-6.553C67.3-6.605,65.056-9.082,62.8-11.59a162.909,162.909,0,0,1-11.47-14.028A266.367,266.367,0,0,1,34.2-53.635c-.05-.057-.1-.11-.151-.168-2.623-3.22-4.274-8.086-6.162-11.769,7.472,3.446,15.733,5.692,23.4,8.752A192.638,192.638,0,0,1,73.553-46.382a248.624,248.624,0,0,1,28.466,18.064c10.335,6.385,19.021,15.173,26.687,24.4,9.07,10.911,17.383,21.918,22.524,35.167a105.265,105.265,0,0,1,5.69,20.167c.052.3.117.624.189.961a65.927,65.927,0,0,1,3.187,7.278c1.436,3.935,4.826,8.264-1.533,9.647" transform="translate(82.057 468.047)" fill="#4cd7d1"/><path d="M236.357,399.274c-7.284,4.93-16.971,6.222-25.687,6.222-34.046,0-66.048-12.607-93.694-31.393-15.149-10.293-28.7-23.4-40.664-37.049-6.906-7.878-13.063-16.4-17.423-25.879a89.037,89.037,0,0,1-6.329-19.939,204.509,204.509,0,0,1-3.592-25.447c-.236-3.354-2.189-21.155,3.4-21.456a7.684,7.684,0,0,1-.005-1.232c-12.134-18.936-2.4-18.1,7.724-.439a382.186,382.186,0,0,0,30.561,44.553c10.64,13.6,21.7,26.892,34.74,38.417a267.154,267.154,0,0,0,34.18,25.081c15.194,9.629,30.359,19.024,46.818,26.415,8.555,3.842,17.272,7.281,25.894,10.968,1.551.663,3.215,1.306,4.707,2.075,4.977,2.562,3.339,6.42-.627,9.1" transform="translate(-15 44.006) rotate(-13)" fill="#c1dee2"/><path d="M81.123,35.255c13.843,0,26.162-1.8,38.917-7.312,11.01-4.755,21.044-11.051,30.786-17.9,13.7-9.639,24.5-20.859,32.052-35.724,4.514-8.881,7.825-21.447,4.793-31.133C184.1-68.226,174.3-77.74,161.384-75.73c-7.985,1.242-15.3,6.536-21.373,11.518a80.923,80.923,0,0,0-17.87,21.088C114.312-30.14,109.712-15.46,103.063-1.892c-3.155,6.44-6.2,12.926-9.984,19.046a30.714,30.714,0,0,1-6.7,8.285c-1.519,1.2-7.921,3.29-5.473,6-35.9-.472-67.7-28.086-74.593-62.266-.642-3.186-1.144-6.4-1.673-9.6-.334-2.024-.2-9.488-2.006-10.781C-1.352-54.068.323-45.4.494-44.156q.663,4.836,1.408,9.662C4.593-17,12.369-.738,25.336,11.737,40.165,26,60.172,35.255,81.123,35.255Z" transform="translate(74.737 233.948)" fill="#4cd7d1" opacity="0.6"/></g><g transform="translate(1829.19 1777.913)"><path d="M14.548,52.314C41.873,98.156,73.7,142.544,92.811,192.666c-.77-5.908-1.587-11.81-2.5-17.7-4.85-31.24-10.877-62.253-17.21-93.227-3.225-15.771-6.637-31.484-10.135-47.2C61.083,26.1,59.225,17.656,57.3,9.225c-.465-2.043-.865-5.61-1.447-9.225,18.574,60.951,36.486,121.948,49.588,184.365q2.578,12.287,4.381,24.531c.41-1.862.814-3.725,1.255-5.582A360.707,360.707,0,0,1,133.8,138.153,197.553,197.553,0,0,1,149.65,109.39c3.817-5.655,12.82-12.377,16.3-18.169-19.045,34.93-25.921,78.636-36.918,116.611-2.684,9.267-5.385,18.519-8.031,27.788,16.583-33.257,42.312-60.581,78.085-72.423-43.3,28.611-69.274,78.715-86.776,129.96-.058.608-.126,1.215-.186,1.824,5.15-9.774,11.638-18.615,20.43-24.807,18.818-13.256,39.694-9.394,57.949,1.977-14.327-9.107-40.219-.814-52.274,8.442-8.63,6.626-16,15.515-22.409,24.188-1.535,2.079-3.628,4.5-5.84,7.092a319.719,319.719,0,0,1-15.309,59.954c1.181-5.693.327-14.8.654-19.04.036-.459.065-.919.1-1.377q-1.631,6.514-3.15,12.859a175.988,175.988,0,0,0,3.957-24.975q.33-5.48.661-10.96-.108-10.4-.84-20.865c-1.713-6.776-3.63-13.167-5.211-18.482A238.9,238.9,0,0,0,66.476,234.3a215.909,215.909,0,0,0-33.62-42.623c-7-6.905-14.322-13.482-21.542-20.15C8.7,169.112,4.036,163.185,0,160.1c29.4,16.206,59.652,33.739,81.1,59.85q-3.771-14.481-8.133-28.5C58.308,144.126,39.8,95.083,14.548,52.314Z" fill="#dde3e9"/><path d="M0,0C0,52.551,4.162,95.152,60.019,95.152S120.038,52.551,120.038,0" transform="translate(43.916 311.807)" fill="url(#a)"/></g></g></svg>