<svg xmlns="http://www.w3.org/2000/svg" xmlns:xlink="http://www.w3.org/1999/xlink" width="1424.317" height="618.543" viewBox="0 0 1424.317 618.543"><defs><linearGradient id="a" x1="0.5" x2="0.5" y2="1" gradientUnits="objectBoundingBox"><stop offset="0" stop-color="#ffdf96"/><stop offset="1" stop-color="#ffb277"/></linearGradient></defs><g transform="translate(-25.683 -1327.973)"><g transform="translate(25.911 1739.133)"><g transform="translate(20.225 0)"><path d="M21.1.152a14.6,14.6,0,0,1,7.467.793c4.926,2.109,6.327,7.978,6.259,12.748-.073,5.135-1.154,10.743,2.717,14.88,1.779,1.9,3.993,3.358,5.74,5.294A25.055,25.055,0,0,1,47.7,40.849c1.992,4.671,2.969,10.165,1.148,15.065-1.6,4.314-5.638,8.208-4.766,13.114.909,5.118,6.026,9.03,9.225,12.842,3.62,4.314,6.953,9.827,7.5,15.485.525,5.422-1.815,10.9-5.406,15-7.176,8.189-17.962,12.2-28.837,12.179-4.618-.011-9.845-.221-13.83-2.723a7.661,7.661,0,0,1-2.613-2.848,9.246,9.246,0,0,0-2.527-2.551,15.118,15.118,0,0,1-4.814-6.483c-3.946-9.851-.792-22.039,4.732-30.787,1.309-2.073,2.381-4.067,1.745-6.538-.664-2.579-2.295-4.9-3.737-7.121a57.357,57.357,0,0,1-4.167-6.65,15.2,15.2,0,0,1-1.289-7.8A26.64,26.64,0,0,1,5.72,37.129C8.7,33.177,12.195,29.4,12.2,24.218c.009-5.488-3.629-10.37-2.08-15.949A10.637,10.637,0,0,1,14.131,2.2C16.123.875,18.753.44,21.1.152Z" transform="translate(0)" fill="#dde3e9"/><path d="M1.205,1.032A1.254,1.254,0,0,1,2.8.045c.9.253.881,1.1.857,1.854a25.116,25.116,0,0,0,.813,6.82C5.62,13.4,7.742,17.7,9.424,22.2a24.723,24.723,0,0,1,1.483,13.871c-.929,4.478-2.389,8.839-3.34,13.323-.838,3.952-1.73,8.119-.454,12.06,1.228,3.794,3.943,6.884,5.9,10.312A48.94,48.94,0,0,1,19.1,94.837a43.5,43.5,0,0,1-.855,11.25c-.5,2.125-1.168,5-2.973,6.464a2.05,2.05,0,0,1-2.957-.091c-.658-.94-.081-2.394.128-3.4a51.9,51.9,0,0,0,.87-13.169A47.913,47.913,0,0,0,11.268,83.3a42.755,42.755,0,0,0-5.32-10.48C3.7,69.452,1.358,66.076.429,62.084c-.945-4.055-.177-8.18.849-12.157,1.085-4.207,2.507-8.293,3.977-12.385A21.9,21.9,0,0,0,6.4,25.606C4.842,17.359.661,9.619,1.205,1.032Z" transform="translate(18.263 7.893)" fill="#c5cfd6"/></g><g transform="translate(27.906 9.424)"><path d="M79.264,1.378A18.747,18.747,0,0,1,87.629,6.2c4.686,5.044,3.248,12.669.661,18.237-2.784,5.994-7,12.018-4.625,18.895,1.093,3.161,2.931,6.025,3.968,9.21a32.087,32.087,0,0,1,1.525,10.5c-.113,6.525-1.85,13.488-6.568,18.295-4.153,4.232-10.945,6.7-12.5,12.922-1.62,6.486,2.341,13.748,4.1,19.893,1.991,6.954,3.013,15.168.684,22.1-2.232,6.642-7.866,11.864-14.244,14.807-12.743,5.88-27.539,4.976-40.318-.721-5.425-2.419-11.463-5.39-14.835-10.406A9.806,9.806,0,0,1,3.9,135.226a11.832,11.832,0,0,0-1.632-4.313A19.357,19.357,0,0,1,.017,120.788c.536-13.629,10.651-26.3,21.746-33.7,2.629-1.753,4.938-3.537,5.488-6.77.575-3.375-.121-6.957-.652-10.313-.525-3.316-1.341-6.619-1.406-9.983a19.537,19.537,0,0,1,2.581-9.829C30.91,44.4,35.953,40.011,41.745,36.8c5.579-3.09,11.679-5.71,14.409-11.788,2.894-6.442,1.181-14.072,5.937-19.819a13.756,13.756,0,0,1,7.9-5.037C73.034-.364,76.356.5,79.264,1.378Z" transform="translate(0 0)" fill="#dde3e9"/><path d="M45.043.706A1.6,1.6,0,0,1,47.428.384c.921.77.46,1.756.04,2.631a32.4,32.4,0,0,0-2.6,8.449c-1.089,6.1-.844,12.286-1.211,18.452s-1.856,12.026-5.485,17.1c-3.421,4.779-7.4,9.144-10.854,13.918-3.041,4.208-6.256,8.642-6.812,13.948-.536,5.108,1.039,10.168,1.546,15.227,1.05,10.474-.945,20.678-4.883,30.336a55.982,55.982,0,0,1-6.861,12.785c-1.691,2.238-3.971,5.264-6.852,6.042-1.329.359-3.12-.114-3.42-1.66-.282-1.451,1.152-2.859,1.919-3.927a66.8,66.8,0,0,0,7.878-15.033A61.832,61.832,0,0,0,14,102.762a55.307,55.307,0,0,0-.78-15.121c-.884-5.145-1.869-10.344-.88-15.528,1-5.265,4.052-9.715,7.327-13.855,3.463-4.378,7.258-8.438,11.113-12.481a28.18,28.18,0,0,0,7.563-13.436C40.8,21.821,39.932,10.522,45.043.706Z" transform="translate(27.906 11.325)" fill="#c5cfd6"/></g><g transform="translate(0 47.795)"><path d="M11.716,0a16.807,16.807,0,0,1,12.9,6.591c3.681,4.526,4.424,10.053,5.918,15.448A13.763,13.763,0,0,0,34.8,29.212c2.039,1.659,4.627,1.991,7.067,2.8a16.413,16.413,0,0,1,10.37,10.281c1.9,5.807-.112,11.663.234,17.548.318,5.4,5.7,8.776,10.027,11.367,4.268,2.555,8.114,4.946,9.4,9.923,1.363,5.278,1.821,11.17-.068,16.385-3.144,8.682-12.345,12.505-21.235,13.1-8.068.538-18.213-.307-24.272-6.107-3.626-3.471-4.939-8.325-4.776-13.155a39.693,39.693,0,0,1,1.479-8.881,39.745,39.745,0,0,0,1.506-6.231c.563-5.655-4.714-6.741-9.206-8.294A21.841,21.841,0,0,1,2.839,57.055C.251,52.221-.835,46.793.716,41.47a18.15,18.15,0,0,1,4.178-7.281c.858-.923,2.067-1.693,2.842-2.663a3.563,3.563,0,0,0,.316-3.14c-1.152-4.9-4.74-8.958-6.024-13.85-1.159-4.415-.474-9.91,3.6-12.759A10.72,10.72,0,0,1,11.716,0Z" transform="translate(0 0)" fill="#c5cfd6"/><path d="M2.939.559c5.5,5.8,7,13.677,7.435,21.309.246,4.279-.01,8.793,1.259,12.944,1.086,3.553,3.633,6.268,6.257,8.835,5.284,5.167,11.176,10.42,12.722,17.9.907,4.388.295,8.921,1.548,13.261a36.337,36.337,0,0,0,5.585,11.152c1.964,2.683,4.524,4.736,6.671,7.237.655.763,1.594,1.887,1.323,2.965-.316,1.262-1.94,1.662-3.091,1.463-2.685-.462-4.945-3-6.7-4.847a41.772,41.772,0,0,1-6.522-8.86A37.017,37.017,0,0,1,25.2,72.4c-.7-4.21-.353-8.6-1.958-12.637-2.7-6.8-9.25-10.809-13.985-16.108-5.9-6.6-5.02-14.819-4.416-22.94.332-4.463.662-9.5-1.615-13.578C2.353,5.586.415,4.136.041,2.368-.3.748,1.567-.889,2.939.559Z" transform="translate(15.85 12.209)" fill="#afb9c5"/></g><path d="M0,0c0,33.189,5.416,50.58,34.01,50.58S68.021,33.189,68.021,0Z" transform="translate(24.418 156.803)" fill="url(#a)"/></g><g transform="translate(1213.143 1327.972)"><path d="M9.234,18.154C13.972,14.311,19.36,11.241,24.58,8.119,32.964,3.105,41.21-.256,51.007.015c15.934.44,30.3,5.82,43.385,14.372,6.821,4.457,13.4,9.686,18.569,16.018,2.3,2.819,4.408,5.788,6.448,8.8,1.261,1.86,2.457,3.762,3.637,5.675.71,1.152,2.229,2.786,2.29,4.2a2.293,2.293,0,0,1-3.289,2.166c-1.3-.7-2.092-2.86-2.876-4.078-1.8-2.8-3.748-5.5-5.757-8.157a71.025,71.025,0,0,0-10.472-11.26A102.32,102.32,0,0,0,75.83,11.3c-1.192,9.461-6.61,16.472-14.782,21.217-11.635,6.755-23.3,10.194-36.7,9.206C15.644,41.085,8.576,37.181,2.3,31.4,1.115,30.309-.387,28.617.091,26.807c.46-1.742,2.72-3.12,4-4.271C5.765,21.026,7.483,19.575,9.234,18.154Z" transform="translate(102.069 167.962) rotate(-30)" fill="#dde3e9"/><path d="M94.457,209.54C92.641,195,90.718,180.55,87.187,166.3c-2.081-8.4-4.75-16.621-7.175-24.924q.326,1.562.576,3.141c-.844-2.476-2.609-4.844-3.623-7.312-1.131-2.752-2.04-5.611-2.9-8.452-1.686-5.546-3.276-11.1-5.173-16.584-2.115-6.108-4.551-12.115-6.82-18.169-1.926-5.138-3.73-10.533-6.239-15.436-1.367-2.672-2.593-5.543-3.936-8.267-.449-.912-4.3-11.1-4.274-11.1.639,0,3.03,4.526,3.426,5.191,1.158,1.942,2.141,3.963,3.135,5.988A26.685,26.685,0,0,1,56.369,63.4c.331-.683,2.658-5.72,3.415-5.72.378,0-3.122,9.51-3.564,10.345a17.252,17.252,0,0,0-1.266,2.26c-.379,1.165-.184.874.127,1.924.57,1.926,1.833,3.811,2.627,5.66.436.987,1.51,4.408,2.556,5.94,2.693,5.261,4.6,11.676,6.652,17.35a37.159,37.159,0,0,1,2.27-8.1c.251-.623,2.252-6.407,2.827-6.407.647,0-1.838,9.262-2.175,10.062-.626,1.486-1.61,2.925-2.131,4.438-.572,1.66.429,3.153,1.065,4.851,2.342,6.244,4.395,12.55,6.27,18.941,10.927-4.785,13.111-18.842,13.833-29.207a72.252,72.252,0,0,0-2.441-22.321c-2.415-9.669-6.484-19-10.8-27.986a99.9,99.9,0,0,0-20.306-28.01,106.971,106.971,0,0,0-14.4-11.476A30.606,30.606,0,0,0,33.044,1.89,28.586,28.586,0,0,0,29.062.922C28.037.744,25.947-.2,25.1.04,18.157,1.962,12.938,5.154,8.889,11.083a51.885,51.885,0,0,0-7.542,18.9A60.03,60.03,0,0,0,.764,52.065,136.136,136.136,0,0,0,5.036,68.66c5.9,19.415,16.25,40.226,34.849,50.862a56.611,56.611,0,0,0,19.561,6.516c1.616.25,3.231.488,4.867.579,1.1.061,4.729-.673,5.527-.2,1.093.65,1.719,4.341,2.194,5.679,3.614,10.171,6.845,20.457,9.775,30.835,3.118,11.042,5.592,22.192,7.652,33.467.876,4.8,1.729,9.583,2.455,14.4.169,1.122-.01,4.651,1.086,5.641a1.325,1.325,0,0,0,2.087-.4c.719-1.334-.447-5.016-.633-6.5" transform="matrix(0.391, -0.921, 0.921, 0.391, 0, 87.744)" fill="#4cd7d1" opacity="0.6"/><path d="M37.935,48.326a61.162,61.162,0,0,1-10.381-.869,55.767,55.767,0,0,1-10.223-2.783A41.2,41.2,0,0,1,6.411,38.99a14.317,14.317,0,0,1-3.9-4.55,9.959,9.959,0,0,1-1-5.992,1.126,1.126,0,0,1-.346.053A1.186,1.186,0,0,1,0,27.71c-.031-.263.174-.462.578-.56.987-.237,1.026-.308,1.4-.986l.112-.2a10.521,10.521,0,0,0,.586-1.345c.124-.323.251-.658.395-.966A26.846,26.846,0,0,1,5.65,19.172a35.63,35.63,0,0,1,7.825-7.8c6.247-4.582,11.884-7.546,17.232-9.061A64.15,64.15,0,0,1,48.175,0,70,70,0,0,1,61.614,1.286a35.049,35.049,0,0,1,8.64,2.7,20.5,20.5,0,0,1,7.1,5.5,20.264,20.264,0,0,1,4.313,8.526,10.066,10.066,0,0,1,.158,1.166,8.223,8.223,0,0,0,.217,1.4l.042.152c.233.84.233.84.895.913.185.02.415.046.717.1,1.566.261,3.172.534,4.775.812a117.23,117.23,0,0,1,12.414,2.662,33.6,33.6,0,0,1,3.919,1.4c.151.065.377.153.639.255,1.483.578,4.243,1.655,4.637,2.716a1.162,1.162,0,0,1,.039,1.041.761.761,0,0,1-.667.261,4.952,4.952,0,0,1-2.009-.614c-.7-.4-1.436-.77-2.176-1.113a35.344,35.344,0,0,0-5.778-2.062c-2.118-.568-4.311-1-6.432-1.418l-.071-.014c-1.82-.358-3.761-.712-6.106-1.112-1.154-.2-2.337-.392-3.381-.565l-.021,0a3.086,3.086,0,0,1-.3-.074,2.009,2.009,0,0,0-.48-.1.247.247,0,0,0-.193.065.259.259,0,0,0-.046.208,34.224,34.224,0,0,0-5.387-.446c-.664-.02-1.347-.041-2.005-.075-2.543-.133-4.678-.221-6.833-.221-.728,0-1.438.011-2.112.032a62.463,62.463,0,0,0-6.45.5,32.4,32.4,0,0,0-3.711.731c-.15.038-.4.087-.694.143-1.018.2-2.72.525-3.007.984.049-.077.362-.115.93-.115.461,0,1.026.025,1.466.047l.35.018c.319.016.57.029.687.029h.033c1.524-.058,3.047-.213,4.466-.371a70.082,70.082,0,0,1,7.77-.45l.529,0c-.008.355-1.008.909-1.738,1.314-.27.149-.5.278-.628.366a26.8,26.8,0,0,0-2.955,2.383,29.22,29.22,0,0,0-4.712,5.23,5.466,5.466,0,0,1,1.683-1.135c.346-.185.673-.361.872-.5.992-.7,1.9-1.4,2.71-2.1.851-.733,1.628-1.518,2.275-2.189.236-.245.5-.575.779-.926a7.558,7.558,0,0,1,1.909-1.917l.01,0a.537.537,0,0,1,.151.064l.087.043a.893.893,0,0,0,.355.107.266.266,0,0,0,.114-.023,1.732,1.732,0,0,0,.464-.528A.822.822,0,0,1,70,24.92a2.571,2.571,0,0,1,.918-.134,12.594,12.594,0,0,1,1.617.15c.372.051.722.1,1,.112,1.789.083,3.6.185,5.358.285l.063,0,1.9.107c.094.005.195.007.318.007h.351c.437,0,.814.032,1.014.423a4.464,4.464,0,0,1-.287,2.356c-.051.179-.095.333-.125.457a14.79,14.79,0,0,1-3.278,6.442,26.468,26.468,0,0,1-11.17,7.394,104.106,104.106,0,0,1-14.763,4.225A75.665,75.665,0,0,1,37.935,48.326ZM53.68,17.833c-.072,0-.118.015-.137.046a.146.146,0,0,0-.012.12c.173.623,3.348,2.237,5.665,3.416a23.389,23.389,0,0,1,2.274,1.226,16.019,16.019,0,0,0-4.24-3.4A17.221,17.221,0,0,0,53.68,17.833Zm22.391-4.149c-.005.031.312.588.647,1.178l.01.017.016.028c.269.472.547.961.674,1.205.567,1.089,1.128,2.26,1.714,3.582a21.844,21.844,0,0,0-3.061-6.01Z" transform="translate(117.226 117.938) rotate(-30)" fill="#4cd7d1"/></g><g transform="translate(194.269 1931.501) rotate(180)"><path d="M79.884,0c2.469,0,4.931.05,7.4.178,1.88.1,4.752-.291,6.343.881,1.653,1.217,1.539,3.709,1.281,5.469-1.365,9.307-4.7,17.559-11.664,24.152C72.511,40.833,60.211,45.991,45.656,48.289c-10.224,1.614-19.663-.627-27.189-7.9A113.506,113.506,0,0,0,6.7,73.3,78.875,78.875,0,0,0,5.536,90.215c.117,3.67.319,7.331.713,10.983.17,1.587.98,3.99.358,5.489a2.5,2.5,0,0,1-4.291.43c-.918-1.25-.75-3.7-.938-5.184-.313-2.457-.6-4.916-.81-7.385-.337-4-.585-8-.567-12.014.042-9.012,2.045-18.058,4.785-26.613,5.256-16.411,13.784-31,27.047-42.44C39.988,6.446,49.322,3.6,59.911,2.066,66.5,1.114,73.2,0,79.884,0" transform="translate(102.031 149.123) rotate(180)" fill="#4cd7d1"/><path d="M3.292,1.163A6.466,6.466,0,0,1,5.374.6,33.766,33.766,0,0,1,11.882,0,120.09,120.09,0,0,1,32.007,1.808c4.189.724,9.253,3.159,13.42,1.836,7.259-2.3,14.6-2.191,21.484,1.1,6.3,3.008,11.077,8.721,13.867,14.893a37.853,37.853,0,0,1,2.612,6.673c.207.473.405.949.584,1.432.508,1.371.963,2.767,1.387,4.166.181.6.636,1.914.1,2.168A39.644,39.644,0,0,1,87.72,39c1.853,4.929,3.879,10.335,4.53,15.559a24.341,24.341,0,0,1,.026,5.818c-.111.958-.065,2.884-.714,3.612-1.378,1.545-2.086-.618-1.931-1.649,1.186-7.854-1.1-15.23-3.82-22.613a46.46,46.46,0,0,0-7.872-13.1,33.056,33.056,0,0,0-9.006-7.846,140.812,140.812,0,0,0-13.716-6.8c-3.055-1.385-6.113-2.733-9.252-3.926a9.222,9.222,0,0,0-2.571-.949c-1.637-.006-3.957,1.2-5.538,1.652-5.2,1.479-10.469,3.372-15.844,4.127a20.432,20.432,0,0,1-9.9-1.21,9.268,9.268,0,0,1-1.559-.849,22.618,22.618,0,0,1-6.63-3.752A26.445,26.445,0,0,1,.814,3.734a1.753,1.753,0,0,1-.41-1.1C.191,2.521.05,2.391.018,2.239-.217,1.117,1.922,1.1,3.292,1.163" transform="translate(109.008 171.797) rotate(180)" fill="#89c5cc"/><path d="M39.8,0c26.555,0,44.441,21.663,52.9,44.178,3.188,8.487,3.935,17.806,5.163,26.717.394,2.86.248,7.217,1.4,9.765.416.924,1.37,1.256.914,2.515a2.024,2.024,0,0,1-1.632,1.38c-1.67.311-4.032-1.53-5.464-2.257-11.878-6.03-19.683-15.353-26.05-26.76-3.947-7.07-7.951-14.41-10.3-22.172A77.469,77.469,0,0,1,53.97,18.711a56.465,56.465,0,0,1-.368-5.869c.011-1.934.9-2.956,1.539-4.639C46.28,4.808,36.279,3.883,27.3,7.4A35.832,35.832,0,0,0,8.244,24.842,33.533,33.533,0,0,0,5.9,31.271c-.369,1.447-.387,3.325-1.07,4.633C3.175,39.076-.312,36.956.022,34c.934-8.236,5.589-16.5,11.538-22.231A41.251,41.251,0,0,1,39.8,0" transform="translate(100.287 84.59) rotate(180)" fill="#4cd7d1"/></g><g transform="translate(1425.655 1921.725) rotate(-171)"><path d="M1.77.576A41.412,41.412,0,0,1,11.106.029a58.1,58.1,0,0,1,42.809,20.23C62.8,30.736,65.244,43.761,67,56.929c.174,1.307.249,2.606.347,3.916.021.281.053.532.086.768a1.687,1.687,0,0,1,.644,2.119,87.318,87.318,0,0,1,3.911,10.22c3.249,10.319,6.554,20.835,4.518,31.686a151.054,151.054,0,0,0-2.673-17.951c-.069-.337-.143-.672-.221-1.005-.008-.035-.015-.07-.023-.105a39.146,39.146,0,0,0-1.644-5.261l-.021-.056c-.088-.226-.182-.451-.275-.676-.192-.465-.389-.93-.6-1.392q-.106-.236-.2-.476c-.975-2.38-1.387-5.061-2.26-7.524q-.313-.84-.656-1.673l-.041-.1c-.619-1.493-1.3-2.968-2.024-4.427a5.446,5.446,0,0,1-.941-1.686,10.525,10.525,0,0,1-.781-1.5q-.638-1.23-1.278-2.459l.039.014q-.643-1.179-1.286-2.348l-.283-.514-.459-.819c-1.431-2.55-2.948-5.049-4.523-7.517-.562-.881-1.905-2.144-2.163-3.133-.009-.037-.012-.071-.017-.106A56.222,56.222,0,0,0,42.1,32.236c.57.614,1.783,2.7,2.1,3.111.981,1.264,2.046,2.44,3.115,3.63a77.342,77.342,0,0,1,5.445,6.66,126.464,126.464,0,0,1,8.135,13.3c.024.027.049.052.072.08C62.217,60.547,63,62.857,63.9,64.606c-3.547-1.636-7.468-2.7-11.109-4.155A91.44,91.44,0,0,1,42.218,55.5,118.019,118.019,0,0,1,28.705,46.92,53.457,53.457,0,0,1,16.038,35.338c-4.306-5.18-8.252-10.406-10.692-16.7a49.982,49.982,0,0,1-2.7-9.574c-.024-.142-.056-.3-.09-.456A31.3,31.3,0,0,1,1.042,5.156C.361,3.288-1.249,1.233,1.77.576" transform="translate(122.325 153.461) rotate(180)" fill="#4cd7d1"/><path d="M.255,26.617c-.66,2.176-.109,4.091,2.494,3.551.78-.162,1.587-.421,2.358-.639,4.285-1.213,8.531-2.545,12.838-3.68,8.286-2.184,16.694-3.241,25.183-4.221a126.943,126.943,0,0,1,20.121-.94,134.414,134.414,0,0,1,24.32,3.82,181.923,181.923,0,0,1,24.615,7.335,162.324,162.324,0,0,1,25.592,12.821,239.852,239.852,0,0,1,54.373,45.5q3.423,3.826,6.824,7.672c1.71,1.931,3.321,3.945,5.019,5.883,1.406,1.6,3.051.69,1.969-1.19-1.243-2.159-3.375-4.1-5-5.969q-2.17-2.5-4.341-5.007c-1.7-1.957-3.4-3.9-5.145-5.819a288.728,288.728,0,0,0-25.964-25.2A201.434,201.434,0,0,0,143.322,44.4c-8.864-5.7-18.274-11.658-28.421-15.031a3.66,3.66,0,0,0-.371-.454c1.972-1.78-4.078-7.773-5.169-8.942a97.438,97.438,0,0,0-8.944-8.329,42.418,42.418,0,0,0-8.3-5.476A51.642,51.642,0,0,0,77.937,1.815,104.124,104.124,0,0,0,51.84.269C36.016,1.584,20.433,6.482,7.87,16.648,4.654,19.251,1.467,22.62.255,26.617Z" transform="translate(206.309 104.541) rotate(180)" fill="#c1dee2"/><path d="M51.171,0A44.734,44.734,0,0,0,32.684,3.471a82.154,82.154,0,0,0-14.625,8.5c-6.51,4.576-11.637,9.9-15.226,16.96C.688,33.148-.884,39.114.556,43.712c1.7,5.416,6.354,9.933,12.488,8.979,3.793-.59,7.27-3.1,10.153-5.468a38.425,38.425,0,0,0,8.489-10.012c3.719-6.165,5.9-13.134,9.063-19.575,1.5-3.057,2.947-6.136,4.743-9.042A14.584,14.584,0,0,1,48.675,4.66c.721-.572,3.763-1.562,2.6-2.846,17.054.224,32.162,13.334,35.436,29.561.3,1.513.543,3.037.795,4.559.159.961.095,4.5.953,5.118,1.893,1.354,1.1-2.76,1.016-3.352q-.315-2.3-.669-4.587A38.189,38.189,0,0,0,77.673,11.165C70.629,4.393,61.124,0,51.171,0Z" transform="translate(131.547 61.237) rotate(180)" fill="#4cd7d1" opacity="0.6"/></g><g transform="translate(25.683 1328.025)"><path d="M89.662-27.021a49.277,49.277,0,0,1-11.108.651A69.128,69.128,0,0,1,27.623-50.435C17.051-62.9,14.144-78.393,12.055-94.056c-.207-1.555-.3-3.1-.413-4.659-.025-.334-.063-.633-.1-.914-.821-.731-1.252-1.584-.766-2.521a103.862,103.862,0,0,1-4.653-12.158C2.255-126.583-1.677-139.092.745-152a179.661,179.661,0,0,0,3.18,21.354c.082.4.17.8.262,1.2.009.042.018.084.028.125a46.559,46.559,0,0,0,1.956,6.258c.008.022.016.044.025.066.105.269.217.536.327.8.228.554.463,1.106.711,1.656q.126.281.242.567c1.16,2.831,1.65,6.021,2.689,8.95q.373,1,.781,1.99l.049.116c.736,1.776,1.549,3.531,2.408,5.267a6.478,6.478,0,0,1,1.12,2.006,12.52,12.52,0,0,1,.929,1.788q.759,1.463,1.52,2.925l-.046-.017q.765,1.4,1.53,2.793l.337.612.547.974c1.7,3.033,3.507,6.006,5.381,8.942.669,1.048,2.267,2.55,2.573,3.726.011.044.014.084.021.127A66.884,66.884,0,0,0,41.678-64.683c-.679-.731-2.121-3.21-2.5-3.7-1.167-1.5-2.434-2.9-3.706-4.318a92.005,92.005,0,0,1-6.478-7.922,150.43,150.43,0,0,1-9.679-15.823c-.028-.032-.059-.062-.085-.095-1.481-1.818-2.414-4.567-3.48-6.647,4.22,1.946,8.886,3.214,13.216,4.943a108.794,108.794,0,0,1,12.576,5.895,140.412,140.412,0,0,1,16.076,10.2c5.837,3.606,10.742,8.569,15.072,13.777C77.81-62.211,82.5-55.994,85.408-48.512a59.45,59.45,0,0,1,3.213,11.389c.029.169.066.353.107.543a37.231,37.231,0,0,1,1.8,4.111c.811,2.222,2.726,4.667-.866,5.448" transform="translate(4.134 241.288)" fill="#4cd7d1"/><path d="M107.1,96.073c-4.114,2.784-9.584,3.514-14.507,3.514-19.228,0-37.3-7.12-52.914-17.729A123.681,123.681,0,0,1,16.712,60.935a61.269,61.269,0,0,1-9.84-14.615A50.284,50.284,0,0,1,3.3,35.059,115.5,115.5,0,0,1,1.269,20.687C1.136,18.793.033,8.74,3.189,8.57a4.34,4.34,0,0,1,0-.7C-3.667-2.82,1.829-2.346,7.548,7.626a215.841,215.841,0,0,0,17.26,25.161c6.009,7.682,12.257,15.187,19.62,21.7a150.875,150.875,0,0,0,19.3,14.165c8.581,5.438,17.146,10.744,26.441,14.918C95,85.736,99.926,87.678,104.8,89.76c.876.375,1.815.738,2.658,1.172,2.811,1.447,1.886,3.626-.354,5.142" transform="translate(4.142 55.817) rotate(-13)" fill="#c1dee2"/><path d="M45.815-13.168c7.818,0,14.775-1.017,21.978-4.129A97.652,97.652,0,0,0,85.18-27.409c7.739-5.444,13.835-11.78,18.1-20.175C105.83-52.6,107.7-59.7,105.988-65.167c-2.017-6.443-7.554-11.816-14.846-10.681-4.509.7-8.643,3.691-12.071,6.5a45.7,45.7,0,0,0-10.092,11.91C64.558-50.1,61.961-41.81,58.205-34.147c-1.782,3.637-3.5,7.3-5.638,10.756a17.346,17.346,0,0,1-3.784,4.679c-.858.68-4.473,1.858-3.091,3.386C25.418-15.593,7.457-31.188,3.565-50.491c-.363-1.8-.646-3.613-.945-5.423C2.431-57.057,2.507-61.273,1.487-62-.763-63.614.182-58.72.279-58.016q.374,2.731.8,5.457A45.438,45.438,0,0,0,14.309-26.45C22.683-18.393,33.982-13.168,45.815-13.168Z" transform="translate(0 76)" fill="#4cd7d1" opacity="0.6"/></g><g transform="translate(1335.978 1713.242)"><path d="M8.332,29.961c15.65,26.255,33.877,51.677,44.823,80.383-.441-3.384-.909-6.764-1.432-10.139-2.777-17.892-6.229-35.654-9.857-53.393-1.847-9.032-3.8-18.032-5.8-27.03-1.078-4.833-2.142-9.669-3.242-14.5-.266-1.17-.5-3.213-.829-5.283,10.638,34.908,20.9,69.843,28.4,105.59q1.477,7.037,2.509,14.05c.235-1.066.466-2.133.719-3.2A206.586,206.586,0,0,1,76.632,79.124,113.143,113.143,0,0,1,85.708,62.65c2.186-3.239,7.342-7.089,9.337-10.406C84.137,72.25,80.2,97.281,73.9,119.03c-1.537,5.308-3.084,10.606-4.6,15.915,9.5-19.047,24.233-34.7,44.721-41.478-24.8,16.386-39.675,45.082-49.7,74.431-.033.348-.072.7-.106,1.045,2.95-5.6,6.665-10.661,11.7-14.208,10.778-7.592,22.734-5.38,33.188,1.132-8.205-5.216-23.034-.466-29.938,4.835C74.226,164.5,70,169.588,66.334,174.555c-.879,1.191-2.078,2.58-3.345,4.062a183.111,183.111,0,0,1-8.768,34.337c.676-3.26.187-8.475.375-10.9.02-.263.037-.526.057-.789q-.934,3.73-1.8,7.365a100.791,100.791,0,0,0,2.266-14.3q.189-3.139.378-6.277-.062-5.956-.481-11.95c-.981-3.881-2.079-7.541-2.985-10.585a136.822,136.822,0,0,0-13.956-31.323,123.656,123.656,0,0,0-19.255-24.411c-4.008-3.955-8.2-7.722-12.338-11.541C4.985,96.854,2.312,93.46,0,91.69c16.835,9.282,34.164,19.323,46.445,34.277q-2.16-8.294-4.658-16.322C33.394,82.544,22.8,54.456,8.332,29.961Z" fill="#dde3e9"/><path d="M0,0C0,30.1,2.383,54.5,34.374,54.5S68.749,30.1,68.749,0" transform="translate(25.152 178.579)" fill="url(#a)"/></g></g></svg>