<svg xmlns="http://www.w3.org/2000/svg" xmlns:xlink="http://www.w3.org/1999/xlink" width="1920.595" height="891.264" viewBox="0 0 1920.595 891.264"><defs><linearGradient id="a" x1="0.5" x2="0.5" y2="1" gradientUnits="objectBoundingBox"><stop offset="0" stop-color="#ffdf96"/><stop offset="1" stop-color="#ffb277"/></linearGradient></defs><g transform="translate(-25.683 -1327.973)"><g transform="translate(26.025 2017.074)"><g transform="translate(19.678 0)"><path d="M20.525.148A14.2,14.2,0,0,1,27.79.919c4.793,2.052,6.155,7.762,6.09,12.4-.071,5-1.123,10.452,2.643,14.477,1.731,1.85,3.885,3.267,5.585,5.151a24.377,24.377,0,0,1,4.3,6.792c1.938,4.545,2.889,9.89,1.117,14.657-1.56,4.2-5.485,7.986-4.637,12.759.885,4.979,5.863,8.786,8.975,12.495,3.522,4.2,6.765,9.561,7.3,15.066.511,5.275-1.766,10.61-5.26,14.6-6.981,7.967-17.476,11.873-28.057,11.849-4.493-.011-9.579-.215-13.456-2.65a7.454,7.454,0,0,1-2.543-2.77,9,9,0,0,0-2.459-2.482A14.709,14.709,0,0,1,2.7,106.956C-1.14,97.372,1.928,85.514,7.3,77c1.274-2.017,2.316-3.957,1.7-6.361-.646-2.509-2.232-4.772-3.636-6.929a55.805,55.805,0,0,1-4.054-6.47A14.791,14.791,0,0,1,.056,49.659,25.919,25.919,0,0,1,5.566,36.124c2.9-3.845,6.3-7.524,6.307-12.561.008-5.339-3.531-10.089-2.023-15.517a10.35,10.35,0,0,1,3.9-5.9A15.8,15.8,0,0,1,20.525.148Z" fill="#dde3e9"/><path d="M1.173,1A1.22,1.22,0,0,1,2.726.044c.874.246.857,1.07.834,1.8A24.437,24.437,0,0,0,4.35,8.483c1.117,4.55,3.182,8.742,4.818,13.112a24.054,24.054,0,0,1,1.443,13.5c-.9,4.357-2.324,8.6-3.249,12.962-.815,3.845-1.683,7.9-.441,11.734,1.195,3.691,3.837,6.7,5.739,10.033a47.616,47.616,0,0,1,5.919,22.45,42.325,42.325,0,0,1-.831,10.946c-.485,2.067-1.136,4.861-2.893,6.289a2,2,0,0,1-2.877-.089c-.64-.914-.079-2.33.125-3.3A50.5,50.5,0,0,0,12.948,93.3a46.616,46.616,0,0,0-1.985-12.253,41.6,41.6,0,0,0-5.176-10.2C3.6,67.572,1.322,64.287.417,60.4c-.919-3.945-.172-7.959.826-11.828,1.056-4.093,2.439-8.068,3.869-12.05A21.311,21.311,0,0,0,6.23,24.913C4.711,16.89.643,9.359,1.173,1Z" transform="translate(17.769 7.68)" fill="#c5cfd6"/></g><g transform="translate(27.151 9.169)"><path d="M77.119,1.341a18.24,18.24,0,0,1,8.139,4.692c4.559,4.908,3.16,12.326.643,17.744-2.709,5.831-6.814,11.693-4.5,18.384,1.064,3.076,2.852,5.862,3.861,8.961A31.219,31.219,0,0,1,86.746,61.34c-.11,6.349-1.8,13.123-6.39,17.8-4.041,4.118-10.649,6.523-12.16,12.572-1.576,6.31,2.278,13.376,3.989,19.354,1.937,6.766,2.932,14.757.665,21.5-2.172,6.463-7.653,11.543-13.859,14.406-12.4,5.721-26.794,4.841-39.226-.7-5.278-2.353-11.153-5.244-14.433-10.125A9.54,9.54,0,0,1,3.8,131.566a11.512,11.512,0,0,0-1.588-4.2,18.833,18.833,0,0,1-2.193-9.85c.522-13.26,10.363-25.59,21.158-32.787,2.558-1.705,4.8-3.441,5.339-6.587.559-3.284-.118-6.769-.635-10.034A71.469,71.469,0,0,1,24.511,58.4a19.009,19.009,0,0,1,2.511-9.563A33.486,33.486,0,0,1,40.615,35.807c5.428-3.007,11.363-5.555,14.019-11.469,2.816-6.268,1.149-13.692,5.776-19.283A13.384,13.384,0,0,1,68.1.154C71.058-.354,74.29.483,77.119,1.341Z" transform="translate(0 0)" fill="#dde3e9"/><path d="M43.824.687A1.561,1.561,0,0,1,46.145.373c.9.749.448,1.709.039,2.56a31.521,31.521,0,0,0-2.529,8.22c-1.059,5.938-.821,11.953-1.179,17.953s-1.806,11.7-5.336,16.633c-3.329,4.65-7.2,8.9-10.56,13.542-2.958,4.094-6.087,8.408-6.628,13.571-.521,4.969,1.011,9.892,1.5,14.815,1.021,10.19-.92,20.119-4.751,29.515A54.467,54.467,0,0,1,10.03,129.62c-1.645,2.177-3.864,5.122-6.667,5.879-1.293.349-3.036-.111-3.328-1.615-.274-1.411,1.121-2.782,1.867-3.821a64.994,64.994,0,0,0,7.665-14.626A60.159,60.159,0,0,0,13.62,99.981a53.81,53.81,0,0,0-.759-14.711C12,80.264,11.043,75.205,12,70.161c.977-5.123,3.942-9.452,7.128-13.48,3.37-4.26,7.062-8.21,10.812-12.143A27.417,27.417,0,0,0,37.3,31.466C39.7,21.231,38.852,10.237,43.824.687Z" transform="translate(27.151 11.018)" fill="#c5cfd6"/></g><g transform="translate(0 46.502)"><path d="M11.4,0A16.352,16.352,0,0,1,23.947,6.413c3.581,4.4,4.3,9.781,5.758,15.03a13.391,13.391,0,0,0,4.149,6.979c1.984,1.614,4.5,1.937,6.876,2.725a15.969,15.969,0,0,1,10.09,10c1.846,5.65-.109,11.347.227,17.073.309,5.258,5.544,8.539,9.756,11.059,4.153,2.486,7.894,4.812,9.145,9.654,1.326,5.136,1.771,10.868-.066,15.941-3.059,8.447-12.01,12.167-20.66,12.744-7.85.523-17.72-.3-23.615-5.942-3.528-3.377-4.805-8.1-4.647-12.8A38.619,38.619,0,0,1,22.4,80.24a38.669,38.669,0,0,0,1.465-6.062c.548-5.5-4.587-6.559-8.957-8.069a21.25,21.25,0,0,1-12.145-10.6C.244,50.807-.812,45.527.7,40.348a17.659,17.659,0,0,1,4.065-7.084c.835-.9,2.011-1.647,2.765-2.591a3.467,3.467,0,0,0,.308-3.055C6.714,22.85,3.223,18.9,1.974,14.143.847,9.847,1.513,4.5,5.479,1.729A10.429,10.429,0,0,1,11.4,0Z" transform="translate(0 0)" fill="#c5cfd6"/><path d="M2.859.544C8.211,6.19,9.666,13.851,10.093,21.276c.239,4.164-.01,8.555,1.225,12.594,1.057,3.457,3.534,6.1,6.088,8.6C22.547,47.493,28.28,52.6,29.784,59.879c.882,4.27.287,8.68,1.506,12.9a35.354,35.354,0,0,0,5.434,10.85c1.911,2.61,4.4,4.608,6.491,7.041.637.743,1.551,1.836,1.287,2.884-.308,1.228-1.887,1.617-3.008,1.424-2.612-.45-4.811-2.92-6.519-4.716a40.642,40.642,0,0,1-6.345-8.62,36.016,36.016,0,0,1-4.116-11.2c-.684-4.1-.343-8.364-1.9-12.295C19.982,51.536,13.61,47.633,9,42.478c-5.74-6.423-4.884-14.418-4.3-22.319.323-4.342.644-9.246-1.571-13.21C2.289,5.435.4,4.024.04,2.3-.293.728,1.525-.865,2.859.544Z" transform="translate(15.421 11.878)" fill="#afb9c5"/></g><path d="M0,0C0,32.291,5.27,49.211,33.09,49.211S66.18,32.291,66.18,0Z" transform="translate(23.757 152.56)" fill="url(#a)"/></g><g transform="translate(1601.306 1306.972)"><path d="M11.383,22.378c5.84-4.737,12.482-8.521,18.916-12.37C40.634,3.828,50.8-.315,62.875.019c19.641.542,37.35,7.175,53.48,17.715,8.408,5.494,16.518,11.939,22.889,19.745,2.835,3.474,5.434,7.135,7.948,10.848,1.554,2.293,3.029,4.637,4.483,7,.875,1.42,2.748,3.434,2.823,5.173a2.827,2.827,0,0,1-4.054,2.67c-1.6-.863-2.579-3.526-3.545-5.027-2.223-3.455-4.62-6.781-7.1-10.055A87.55,87.55,0,0,0,126.894,34.2,126.127,126.127,0,0,0,93.475,13.932c-1.469,11.662-8.147,20.3-18.222,26.154C60.911,48.412,46.53,52.651,30.012,51.434c-10.728-.79-19.441-5.6-27.175-12.726C1.374,37.361-.477,35.275.112,33.044.679,30.9,3.465,29.2,5.04,27.78,7.106,25.919,9.224,24.13,11.383,22.378Z" transform="translate(178.818 228.044) rotate(-30)" fill="#dde3e9"/><path d="M116.435,258.3c-2.238-17.919-4.609-35.736-8.961-53.3-2.565-10.353-5.856-20.488-8.844-30.723q.4,1.926.709,3.872c-1.04-3.053-3.216-5.971-4.466-9.013-1.394-3.392-2.515-6.916-3.579-10.419-2.078-6.837-4.038-13.685-6.377-20.443-2.607-7.529-5.609-14.933-8.407-22.4-2.374-6.334-4.6-12.984-7.691-19.028-1.686-3.294-3.2-6.833-4.851-10.191-.554-1.124-5.3-13.678-5.268-13.678.787,0,3.735,5.579,4.223,6.4,1.427,2.394,2.639,4.885,3.865,7.382a32.894,32.894,0,0,1,2.7-8.6c.409-.842,3.277-7.051,4.209-7.051.466,0-3.848,11.723-4.393,12.752a21.266,21.266,0,0,0-1.56,2.786c-.467,1.436-.227,1.077.156,2.372.7,2.374,2.259,4.7,3.238,6.977.537,1.217,1.861,5.434,3.15,7.322,3.319,6.485,5.675,14.393,8.2,21.387a45.806,45.806,0,0,1,2.8-9.988c.31-.768,2.776-7.9,3.485-7.9.8,0-2.266,11.417-2.681,12.4-.772,1.832-1.985,3.606-2.627,5.471-.7,2.047.528,3.887,1.313,5.979,2.887,7.7,5.417,15.47,7.729,23.348,13.469-5.9,16.162-23.226,17.052-36,.641-9.209-.779-18.584-3.009-27.514C103.569,78.58,98.554,67.076,93.231,56A123.149,123.149,0,0,0,68.2,21.473,131.861,131.861,0,0,0,50.455,7.326a37.727,37.727,0,0,0-9.722-5,35.237,35.237,0,0,0-4.909-1.193C34.561.917,31.984-.25,30.937.049c-8.555,2.37-14.988,6.3-19.98,13.613C6.232,20.58,3.3,28.848,1.66,36.958A74,74,0,0,0,.941,64.18,167.812,167.812,0,0,0,6.208,84.636c7.271,23.932,20.032,49.585,42.957,62.7a69.782,69.782,0,0,0,24.113,8.032c1.992.309,3.983.6,6,.714,1.36.076,5.83-.83,6.813-.245,1.348.8,2.119,5.351,2.7,7,4.455,12.537,8.437,25.217,12.05,38.01,3.843,13.611,6.893,27.356,9.432,41.254,1.08,5.911,2.131,11.813,3.026,17.757.209,1.383-.012,5.733,1.339,6.953a1.634,1.634,0,0,0,2.573-.492c.886-1.645-.551-6.183-.78-8.018" transform="matrix(0.391, -0.921, 0.921, 0.391, 53, 129.16)" fill="#4cd7d1" opacity="0.6"/><path d="M46.762,59.57a75.393,75.393,0,0,1-12.8-1.072,68.743,68.743,0,0,1-12.6-3.43C17.213,53.5,11.932,51.282,7.9,48.062a17.649,17.649,0,0,1-4.809-5.609,12.277,12.277,0,0,1-1.23-7.387,1.388,1.388,0,0,1-.427.066A1.462,1.462,0,0,1,0,34.158c-.039-.325.214-.57.713-.69,1.217-.292,1.265-.379,1.722-1.215L2.577,32A12.969,12.969,0,0,0,3.3,30.344c.152-.4.31-.811.486-1.19a33.093,33.093,0,0,1,3.179-5.521A43.92,43.92,0,0,1,16.61,14.02c7.7-5.649,14.649-9.3,21.242-11.17A79.076,79.076,0,0,1,59.384,0,86.288,86.288,0,0,1,75.95,1.585,43.2,43.2,0,0,1,86.6,4.918,25.27,25.27,0,0,1,95.354,11.7a24.979,24.979,0,0,1,5.316,10.51,12.4,12.4,0,0,1,.2,1.437,10.138,10.138,0,0,0,.267,1.728l.052.187c.287,1.035.287,1.035,1.1,1.125.228.025.512.056.883.118,1.93.322,3.911.659,5.887,1a144.509,144.509,0,0,1,15.3,3.281,41.424,41.424,0,0,1,4.83,1.732c.186.08.464.188.787.314,1.828.713,5.23,2.04,5.716,3.347a1.433,1.433,0,0,1,.048,1.283.938.938,0,0,1-.822.321,6.1,6.1,0,0,1-2.477-.757c-.867-.488-1.77-.95-2.682-1.373a43.567,43.567,0,0,0-7.123-2.541c-2.611-.7-5.314-1.233-7.929-1.748l-.087-.017c-2.244-.442-4.636-.877-7.527-1.371-1.423-.242-2.881-.483-4.168-.7l-.026,0a3.805,3.805,0,0,1-.37-.091,2.476,2.476,0,0,0-.591-.118.3.3,0,0,0-.238.081.32.32,0,0,0-.057.257,42.187,42.187,0,0,0-6.64-.55c-.818-.025-1.66-.05-2.472-.093-3.134-.164-5.766-.272-8.423-.272-.9,0-1.773.013-2.6.039a77,77,0,0,0-7.95.615,39.935,39.935,0,0,0-4.574.9c-.184.047-.5.107-.855.177-1.254.242-3.353.647-3.707,1.213.06-.094.446-.142,1.146-.142.568,0,1.264.031,1.807.058l.432.022c.394.02.7.036.847.036h.041c1.879-.071,3.756-.262,5.506-.458a86.389,86.389,0,0,1,9.577-.555l.652,0c-.01.438-1.242,1.121-2.143,1.619-.333.184-.619.343-.774.451a33.036,33.036,0,0,0-3.642,2.938,36.02,36.02,0,0,0-5.809,6.448,6.738,6.738,0,0,1,2.074-1.4c.427-.229.83-.445,1.075-.616,1.223-.857,2.347-1.726,3.341-2.583,1.05-.9,2.007-1.872,2.8-2.7.291-.3.616-.709.961-1.141a9.317,9.317,0,0,1,2.353-2.363.025.025,0,0,1,.012,0,.662.662,0,0,1,.186.078l.107.053a1.1,1.1,0,0,0,.437.132.328.328,0,0,0,.14-.029,2.135,2.135,0,0,0,.572-.651,1.013,1.013,0,0,1,.168-.22,3.17,3.17,0,0,1,1.131-.165,15.524,15.524,0,0,1,1.994.185c.458.063.891.121,1.236.138,2.2.1,4.442.228,6.6.351l.078,0,2.343.131c.116.006.24.009.392.009h.216l.217,0c.538,0,1,.039,1.25.521.3.6-.091,1.985-.353,2.9-.063.22-.117.411-.154.563A18.231,18.231,0,0,1,97.2,43.3a32.626,32.626,0,0,1-13.77,9.115,128.33,128.33,0,0,1-18.2,5.208A93.271,93.271,0,0,1,46.762,59.57ZM66.17,21.982c-.088,0-.145.019-.169.057a.18.18,0,0,0-.015.148c.213.768,4.126,2.758,6.984,4.211a28.829,28.829,0,0,1,2.8,1.511,19.747,19.747,0,0,0-5.226-4.19A21.229,21.229,0,0,0,66.17,21.982Zm27.6-5.114c-.007.039.384.725.8,1.452l.012.021.02.034c.331.582.674,1.184.83,1.486.7,1.342,1.391,2.786,2.113,4.415a26.926,26.926,0,0,0-3.773-7.409Z" transform="translate(197.502 166.379) rotate(-30)" fill="#4cd7d1"/></g><g transform="translate(189.827 2204.237) rotate(180)"><path d="M77.722,0c2.4,0,4.8.048,7.2.173,1.829.1,4.624-.284,6.171.857,1.608,1.184,1.5,3.609,1.246,5.321-1.328,9.055-4.569,17.084-11.349,23.5-10.439,9.878-22.406,14.9-36.567,17.132-9.947,1.57-19.131-.61-26.453-7.686A110.434,110.434,0,0,0,6.521,71.316,76.74,76.74,0,0,0,5.386,87.773c.114,3.57.311,7.132.693,10.686.166,1.544.953,3.882.349,5.341a2.435,2.435,0,0,1-4.174.418c-.894-1.216-.729-3.6-.913-5.044-.3-2.391-.586-4.783-.788-7.185C.225,88.1-.017,84.2,0,80.3c.041-8.768,1.99-17.57,4.655-25.892C9.77,38.442,18.067,24.251,30.972,13.117,38.906,6.271,47.987,3.5,58.29,2.01,64.7,1.084,71.224,0,77.722,0" transform="translate(99.27 145.087) rotate(180)" fill="#4cd7d1"/><path d="M3.2,1.132A6.291,6.291,0,0,1,5.229.588,32.852,32.852,0,0,1,11.561,0a116.84,116.84,0,0,1,19.58,1.759c4.075.7,9,3.073,13.057,1.787C51.26,1.3,58.4,1.414,65.1,4.615c6.126,2.927,10.777,8.485,13.491,14.49A36.829,36.829,0,0,1,81.132,25.6c.2.46.394.923.568,1.393.494,1.334.937,2.692,1.349,4.053.176.58.619,1.862.093,2.11a38.572,38.572,0,0,1,2.2,4.8c1.8,4.8,3.774,10.055,4.408,15.138a23.682,23.682,0,0,1,.026,5.66c-.108.932-.063,2.806-.695,3.515-1.341,1.5-2.029-.6-1.878-1.6,1.154-7.642-1.075-14.818-3.716-22a45.2,45.2,0,0,0-7.659-12.743,32.162,32.162,0,0,0-8.763-7.634,137,137,0,0,0-13.345-6.615c-2.972-1.348-5.947-2.659-9-3.82a8.972,8.972,0,0,0-2.5-.923c-1.593-.006-3.85,1.17-5.388,1.607-5.06,1.439-10.185,3.281-15.415,4.015a19.879,19.879,0,0,1-9.634-1.177,9.018,9.018,0,0,1-1.516-.826,22.005,22.005,0,0,1-6.451-3.65A25.729,25.729,0,0,1,.792,3.633a1.706,1.706,0,0,1-.4-1.072C.186,2.453.048,2.326.017,2.178-.211,1.087,1.87,1.067,3.2,1.132" transform="translate(106.058 167.147) rotate(180)" fill="#89c5cc"/><path d="M38.72,0C64.557,0,81.958,21.077,90.185,42.982c3.1,8.257,3.828,17.324,5.024,25.994.384,2.782.242,7.022,1.357,9.5.4.9,1.333,1.222.889,2.447a1.969,1.969,0,0,1-1.588,1.343c-1.625.3-3.923-1.489-5.316-2.2C78.995,74.2,71.4,65.133,65.207,54.035c-3.84-6.879-7.736-14.02-10.017-21.572A75.372,75.372,0,0,1,52.509,18.2a54.939,54.939,0,0,1-.358-5.711c.011-1.881.876-2.876,1.5-4.513-8.621-3.3-18.352-4.2-27.085-.78A34.862,34.862,0,0,0,8.021,24.17a32.626,32.626,0,0,0-2.277,6.255c-.359,1.408-.376,3.235-1.041,4.508C3.089,38.019-.3,35.956.022,33.083.93,25.07,5.459,17.025,11.248,11.454A40.135,40.135,0,0,1,38.72,0" transform="translate(97.573 82.301) rotate(180)" fill="#4cd7d1"/></g><g transform="translate(1915.118 2187.758) rotate(-171)"><path d="M2.266.737a53.005,53.005,0,0,1,11.95-.7A74.365,74.365,0,0,1,69.008,25.93c11.373,13.41,14.5,30.082,16.748,46.935.223,1.673.318,3.336.444,5.013.027.36.067.681.11.983.884.787,1.347,1.7.824,2.712a111.761,111.761,0,0,1,5.006,13.081c4.159,13.208,8.389,26.668,5.783,40.557A193.339,193.339,0,0,0,94.5,112.234c-.088-.432-.183-.86-.282-1.286-.01-.045-.02-.09-.03-.135a50.1,50.1,0,0,0-2.1-6.733c-.009-.024-.018-.048-.027-.071-.113-.289-.233-.577-.352-.865-.245-.6-.5-1.19-.765-1.782q-.136-.3-.261-.61c-1.248-3.046-1.775-6.478-2.893-9.63q-.4-1.075-.84-2.141l-.052-.125c-.792-1.911-1.666-3.8-2.591-5.667a6.97,6.97,0,0,1-1.2-2.158,13.471,13.471,0,0,1-1-1.924q-.817-1.574-1.636-3.147l.049.018q-.823-1.509-1.646-3.005l-.363-.658-.588-1.048C76.088,68,74.147,64.8,72.131,61.646c-.72-1.127-2.439-2.744-2.768-4.01-.012-.047-.015-.091-.022-.136A71.961,71.961,0,0,0,53.888,41.261c.73.786,2.282,3.454,2.692,3.982,1.256,1.617,2.619,3.123,3.987,4.646a98.991,98.991,0,0,1,6.969,8.524A161.866,161.866,0,0,1,77.949,75.438c.03.034.063.067.092.1,1.593,1.957,2.6,4.914,3.744,7.152-4.54-2.094-9.559-3.459-14.218-5.318a117.037,117.037,0,0,1-13.529-6.343,151.059,151.059,0,0,1-17.3-10.977c-6.279-3.88-11.556-9.22-16.214-14.824C15.016,38.6,9.966,31.912,6.842,23.861A63.974,63.974,0,0,1,3.385,11.606c-.031-.182-.071-.379-.115-.584A40.065,40.065,0,0,1,1.334,6.6C.462,4.208-1.6,1.578,2.266.737" transform="translate(156.568 196.421) rotate(180)" fill="#4cd7d1"/><path d="M.326,34.068c-.845,2.785-.14,5.236,3.192,4.545,1-.207,2.031-.538,3.018-.818,5.485-1.552,10.919-3.257,16.432-4.71,10.605-2.795,21.367-4.148,32.233-5.4a162.479,162.479,0,0,1,25.753-1.2c10.574.467,20.89,2.523,31.128,4.889a232.849,232.849,0,0,1,31.505,9.388,207.765,207.765,0,0,1,32.756,16.411A307,307,0,0,1,245.937,115.4q4.381,4.9,8.734,9.82c2.188,2.471,4.251,5.049,6.424,7.53,1.8,2.054,3.906.883,2.52-1.523-1.591-2.763-4.32-5.245-6.394-7.64q-2.777-3.206-5.557-6.409c-2.172-2.5-4.357-5-6.586-7.448a369.561,369.561,0,0,0-33.232-32.256,257.825,257.825,0,0,0-28.4-20.637C172.1,49.543,160.053,41.914,147.067,37.6a4.685,4.685,0,0,0-.475-.581c2.524-2.278-5.219-9.949-6.616-11.445a124.716,124.716,0,0,0-11.448-10.66A54.293,54.293,0,0,0,117.9,7.9,66.1,66.1,0,0,0,99.754,2.323c-10.88-1.881-22.3-2.9-33.4-1.978C46.1,2.027,26.153,8.3,10.074,21.308,5.957,24.64,1.877,28.952.326,34.068Z" transform="translate(264.063 133.806) rotate(180)" fill="#c1dee2"/><path d="M65.5,0C57.079,0,49.589,1.095,41.833,4.443a105.151,105.151,0,0,0-18.719,10.88C14.782,21.18,8.219,28,3.626,37.031.881,42.427-1.132,50.063.711,55.949c2.171,6.932,8.133,12.714,15.984,11.492,4.855-.755,9.306-3.971,13-7A49.182,49.182,0,0,0,40.556,47.628c4.76-7.89,7.556-16.81,11.6-25.055,1.919-3.913,3.773-7.854,6.07-11.573A18.666,18.666,0,0,1,62.3,5.965c.923-.732,4.816-2,3.328-3.643,21.828.287,41.165,17.067,45.355,37.836.39,1.936.7,3.888,1.018,5.835.2,1.23.121,5.766,1.22,6.551,2.423,1.733,1.4-3.532,1.3-4.29q-.4-2.939-.856-5.871A48.879,48.879,0,0,0,99.416,14.291C90.4,5.622,78.235,0,65.5,0Z" transform="translate(168.372 78.379) rotate(180)" fill="#4cd7d1" opacity="0.6"/></g><g transform="translate(-49.054 1170.104)"><path d="M118.53,13.218c-4.7,1.023-9.894.945-14.684.86A91.385,91.385,0,0,1,36.517-17.734C22.541-34.21,18.7-54.694,15.937-75.4c-.274-2.056-.391-4.1-.546-6.159-.033-.442-.083-.836-.136-1.208-1.086-.967-1.655-2.094-1.013-3.332a137.3,137.3,0,0,1-6.152-16.072C2.981-118.4-2.217-134.936.985-152a237.506,237.506,0,0,0,4.2,28.23c.108.53.225,1.056.347,1.581.013.055.024.111.037.166a61.549,61.549,0,0,0,2.585,8.273c.011.03.022.059.033.088.139.355.287.709.433,1.062.3.732.611,1.462.94,2.189q.167.371.32.749c1.533,3.742,2.181,7.959,3.554,11.832q.493,1.321,1.032,2.63l.064.153c.973,2.348,2.048,4.667,3.184,6.963.618.462.948,1.609,1.48,2.651a16.551,16.551,0,0,1,1.228,2.364q1,1.934,2.01,3.866l-.061-.022q1.012,1.854,2.022,3.692l.445.809.723,1.288c2.25,4.01,4.636,7.94,7.113,11.821.884,1.385,3,3.371,3.4,4.926.015.058.018.112.027.167A88.419,88.419,0,0,0,55.1-36.57c-.9-.966-2.8-4.244-3.309-4.893-1.543-1.987-3.218-3.837-4.9-5.709a121.627,121.627,0,0,1-8.564-10.473A198.867,198.867,0,0,1,25.53-78.562c-.037-.042-.077-.082-.113-.125-1.958-2.4-3.191-6.037-4.6-8.787C26.4-84.9,32.564-83.224,38.289-80.94a143.823,143.823,0,0,1,16.625,7.793A185.62,185.62,0,0,1,76.166-59.661c7.716,4.767,14.2,11.328,19.924,18.213,6.772,8.146,12.978,16.364,16.816,26.255A78.589,78.589,0,0,1,117.155-.136c.039.224.088.466.141.718a49.221,49.221,0,0,1,2.379,5.434c1.072,2.938,3.6,6.17-1.145,7.2" transform="translate(80.202 427.983)" fill="#4cd7d1"/><path d="M141.582,127.006c-5.438,3.681-12.67,4.645-19.178,4.645-25.419,0-49.311-9.412-69.951-23.437-11.31-7.685-21.427-17.471-30.36-27.66A81,81,0,0,1,9.085,61.233,66.474,66.474,0,0,1,4.36,46.347a152.685,152.685,0,0,1-2.682-19C1.5,24.844.043,11.554,4.216,11.329a5.737,5.737,0,0,1,0-.92C-4.848-3.728,2.417-3.1,9.978,10.081A285.336,285.336,0,0,0,32.795,43.344C40.739,53.5,49,63.421,58.732,72.026A199.453,199.453,0,0,0,84.25,90.751c11.344,7.189,22.666,14.2,34.954,19.721,6.387,2.868,12.9,5.436,19.332,8.188,1.158.5,2.4.975,3.514,1.549,3.716,1.913,2.493,4.793-.468,6.8" transform="translate(80.213 231.736) rotate(-13)" fill="#c1dee2"/><path d="M60.566,7.062C70.9,7.062,80.1,5.717,89.621,1.6a129.094,129.094,0,0,0,22.985-13.368c10.231-7.2,18.289-15.573,23.93-26.671,3.37-6.63,5.842-16.012,3.579-23.243C137.448-70.2,130.128-77.3,120.488-75.8c-5.961.927-11.426,4.879-15.957,8.6A60.416,60.416,0,0,0,91.189-51.455C85.345-41.761,81.91-30.8,76.946-20.672c-2.356,4.808-4.632,9.65-7.454,14.219a22.931,22.931,0,0,1-5,6.185c-1.134.9-5.914,2.456-4.086,4.476C33.6,3.857,9.858-16.759,4.713-42.278c-.479-2.379-.854-4.776-1.249-7.169-.25-1.511-.149-7.084-1.5-8.049-2.975-2.13-1.724,4.34-1.6,5.271q.495,3.611,1.051,7.214A60.068,60.068,0,0,0,18.916-10.5C29.987.154,44.924,7.062,60.566,7.062Z" transform="translate(74.737 233.948)" fill="#4cd7d1" opacity="0.6"/></g><g transform="translate(1800.336 1920.913)"><path d="M10.664,38.349c20.031,33.6,43.361,66.143,57.371,102.885-.565-4.331-1.163-8.657-1.833-12.977-3.555-22.9-7.973-45.635-12.616-68.34-2.364-11.561-4.865-23.08-7.43-34.6-1.379-6.186-2.742-12.376-4.15-18.557-.341-1.5-.634-4.113-1.061-6.762C54.562,44.68,67.692,89.394,77.3,135.149q1.89,9.007,3.212,17.983c.3-1.365.6-2.73.92-4.092a264.417,264.417,0,0,1,16.656-47.767A144.816,144.816,0,0,1,109.7,80.189c2.8-4.146,9.4-9.073,11.95-13.319-13.961,25.606-19,57.644-27.063,85.482-1.968,6.793-3.947,13.576-5.887,20.37,12.156-24.379,31.017-44.409,57.24-53.089C114.2,140.605,95.16,177.334,82.33,214.9c-.042.446-.093.891-.136,1.337,3.775-7.165,8.531-13.646,14.976-18.185,13.795-9.717,29.1-6.886,42.479,1.449-10.5-6.676-29.483-.6-38.319,6.188C95,210.546,89.6,217.062,84.9,223.419c-1.125,1.524-2.66,3.3-4.281,5.2A234.372,234.372,0,0,1,69.4,272.568c.866-4.173.24-10.847.48-13.957.026-.337.047-.674.073-1.01q-1.2,4.775-2.309,9.426a129.007,129.007,0,0,0,2.9-18.308q.242-4.017.484-8.034-.079-7.624-.616-15.3c-1.255-4.967-2.661-9.652-3.82-13.548A175.124,175.124,0,0,0,48.73,171.751a158.272,158.272,0,0,0-24.645-31.245c-5.13-5.062-10.5-9.883-15.792-14.771C6.38,123.968,2.959,119.623,0,117.358c21.548,11.88,43.728,24.732,59.447,43.873q-2.764-10.616-5.962-20.891C42.743,105.652,29.179,69.7,10.664,38.349Z" fill="#dde3e9"/><path d="M0,0C0,38.523,3.051,69.752,44,69.752s44-31.229,44-69.752" transform="translate(32.193 228.571)" fill="url(#a)"/></g></g></svg>