<svg xmlns="http://www.w3.org/2000/svg" width="34.223" height="34.223" viewBox="0 0 34.223 34.223"><circle cx="17.112" cy="17.112" r="17.112" transform="translate(0 0)" fill="#2b414d"/><g transform="translate(8.257 7.312)"><path d="M46.147,35.146V42.2h-4.09V35.619c0-1.653-.591-2.781-2.071-2.781a2.237,2.237,0,0,0-2.1,1.5,2.8,2.8,0,0,0-.135,1V42.2h-4.09s.055-11.148,0-12.3h4.091v1.743c-.008.014-.02.027-.027.04h.027v-.04a4.061,4.061,0,0,1,3.686-2.032c2.691,0,4.708,1.758,4.708,5.536ZM29.383,23.969a2.132,2.132,0,1,0-.054,4.251h.027a2.132,2.132,0,1,0,.027-4.251ZM27.311,42.2H31.4V29.9H27.311Z" transform="translate(-27.068 -23.969)" fill="#f1f2f2"/></g></svg>