<svg xmlns="http://www.w3.org/2000/svg" viewBox="0 0 1920 1104.926"><defs><style>.a{fill:#f9fbfd;}.b{fill:#09f;}.c{fill:#e8a723;}.d{fill:#46c86d;}.e{fill:#e84354;}.f{fill:#554fe8;}</style></defs><g transform="translate(13025 -1955)"><path class="a" d="M0,1009.663H2.994V.054c9.38,1.821,44.255,8.475,99.266,17.609,31.566,5.242,64.331,10.393,97.381,15.311C240.091,38.994,281.3,44.71,322.131,49.966,424.312,63.122,525.289,73.572,622.256,81.031,679.331,85.419,735.7,88.815,789.8,91.119c59.268,2.525,117.3,3.805,172.48,3.805,55.331,0,113.491-1.287,172.866-3.826,54.18-2.316,110.608-5.728,167.719-10.14,96.971-7.491,197.862-17.984,299.87-31.188,40.7-5.269,81.775-11,122.087-17.032,32.879-4.921,65.45-10.073,96.809-15.311C1875.865,8.368,1910.092,1.8,1919.29,0h.288V1009.663H1920l-.422.083V1010h-1.292c-31.54,6.165-493.67,94.926-957,94.926C481.286,1104.926,0,1009.663,0,1009.663Z" transform="translate(-13025 1955)"/><path class="b" d="M0,15A15,15,0,0,1,15,0H30V15A15,15,0,0,1,0,15Z" transform="translate(-11366.423 2958)"/><path class="c" d="M0,15A15,15,0,0,1,15,0H30V15A15,15,0,0,1,0,15Z" transform="translate(-12961.838 2461.531) rotate(99)"/><path class="c" d="M0,15A15,15,0,0,1,15,0H30V15A15,15,0,0,1,0,15Z" transform="translate(-12568.604 2560.531) rotate(99)"/><path class="c" d="M0,15A15,15,0,0,1,15,0H30V15A15,15,0,0,1,0,15Z" transform="translate(-11229.261 2669.531) rotate(99)"/><path class="d" d="M0,15A15,15,0,0,1,15,0H30V15A15,15,0,0,1,0,15Z" transform="matrix(-0.998, 0.07, -0.07, -0.998, -11951.878, 3044.917)"/><path class="d" d="M0,15A15,15,0,0,1,15,0H30V15A15,15,0,0,1,0,15Z" transform="matrix(-0.998, 0.07, -0.07, -0.998, -11420.413, 2486.917)"/><path class="e" d="M0,15A15,15,0,0,1,15,0H30V15A15,15,0,0,1,0,15Z" transform="matrix(-0.995, -0.105, 0.105, -0.995, -12829.65, 2776.486)"/><path class="f" d="M0,15A15,15,0,0,1,15,0H30V15A15,15,0,0,1,0,15Z" transform="translate(-12704.628 2187.621) rotate(21)"/><path class="f" d="M0,15A15,15,0,0,1,15,0H30V15A15,15,0,0,1,0,15Z" transform="translate(-11181.159 2257.259) rotate(-91)"/><path class="f" d="M0,15A15,15,0,0,1,15,0H30V15A15,15,0,0,1,0,15Z" transform="translate(-11668.193 2790.259) rotate(-91)"/><path class="e" d="M0,15A15,15,0,0,1,15,0H30V15A15,15,0,0,1,0,15Z" transform="matrix(1, -0.017, 0.017, 1, -11699.661, 2062.264)"/><path class="b" d="M0,15A15,15,0,0,1,15,0H30V15A15,15,0,0,1,0,15Z" transform="translate(-12603.11 2988.868) rotate(121)"/></g></svg>