<svg xmlns="http://www.w3.org/2000/svg" viewBox="0 0 80.023 30.256"><defs><style>.a{fill:#0582d5;}</style></defs><path class="a" d="M1.978-3.823q-.088-1.626,2.2-2.834l10.217-5.273L4.175-17.183q-2.285-1.165-2.2-2.791A2.712,2.712,0,0,1,2.3-21.039a3.149,3.149,0,0,1,.56-.791q.286-.275.439-.231l14.216,7.712a2.636,2.636,0,0,1,1.34,2.472A2.636,2.636,0,0,1,17.512-9.4L3.3-1.758q-.132.044-.428-.2A2.458,2.458,0,0,1,2.3-2.714,2.773,2.773,0,0,1,1.978-3.823ZM25.058-14.49A15,15,0,0,1,29.23-25.447a14.454,14.454,0,0,1,10.8-4.26,14.072,14.072,0,0,1,7.936,2.05q3.084,2.05,3.084,4.045a2.151,2.151,0,0,1-.6,1.561,2.629,2.629,0,0,1-1.219.775q-.615.153-.7.022a8.61,8.61,0,0,0-3.588-3.231,10.721,10.721,0,0,0-4.817-1.135,9.59,9.59,0,0,0-7.4,3.1A11.447,11.447,0,0,0,29.87-14.45a12.091,12.091,0,0,0,2.678,8.117,8.992,8.992,0,0,0,7.22,3.148A9.45,9.45,0,0,0,45.66-5a7.046,7.046,0,0,0,2.82-4.7v-1.9H41.647q-2.329,0-2.351-1.737v-.217q0-1.781,2.351-1.781h8.459q2.483,0,2.461,2.637V-.264q0,.088-.2.176a3.439,3.439,0,0,1-.56.176,3.207,3.207,0,0,1-.758.088q-2.527,0-2.527-3.739v-.528Q45.649.549,38.868.549A12.83,12.83,0,0,1,28.846-3.661,15.574,15.574,0,0,1,25.058-14.49ZM60.464-2.2V-26.5a2.656,2.656,0,0,1,.678-1.89,2.338,2.338,0,0,1,1.792-.725h8.242q5.334,0,8.078,2.2A7.807,7.807,0,0,1,82-20.437a8.361,8.361,0,0,1-2.21,6.071,9.6,9.6,0,0,1-6.433,2.6L81.823-1.7q.131.131-.13.579a2.715,2.715,0,0,1-.958.873,2.985,2.985,0,0,1-1.589.426,3.78,3.78,0,0,1-3.01-1.788l-7.954-9.682H64.969v9.376q0,2.093-1.983,2.093h-.625Q60.464.2,60.464-2.2Zm4.46-12.832h6.141a7.048,7.048,0,0,0,4.721-1.363,4.786,4.786,0,0,0,1.574-3.823q0-5.164-6.427-5.164H64.925Z" transform="translate(-1.974 29.707)"/></svg>