<svg xmlns="http://www.w3.org/2000/svg" width="153.057" height="153.054" viewBox="0 0 153.057 153.054"><g transform="translate(109.221 -12.197) rotate(45)"><path d="M22.344,30.464a8.04,8.04,0,0,0-1.577.449C9.426,35.443,9.615,65.089,9.615,65.089H6.277A210.8,210.8,0,0,0,.644,34.215C-3.483,17.885,13.444,3.249,16.882.473c.387-.309.6-.473.6-.473C34.534,6.266,22.344,30.464,22.344,30.464Z" transform="translate(0 89.373)" fill="#f4486d"/><path d="M18.711.511c-.393-.181-.8-.353-1.23-.511,0,0-.21.164-.6.473C13.444,3.249-3.483,17.884.644,34.215A209.733,209.733,0,0,1,6.266,65.084H8.144A209.05,209.05,0,0,0,2.511,34.21C-1.6,17.956,15.162,3.374,18.711.511Z" transform="translate(0.013 89.377)" fill="#fff" opacity="0.2"/><path d="M25.922,34.219A208.055,208.055,0,0,0,20.3,65.089H16.95s.21-30.983-11.928-34.442a6.653,6.653,0,0,0-.8-.187S-7.972,6.261,9.084,0c0,0,.172.128.483.379C12.727,2.908,30.1,17.7,25.922,34.219Z" transform="translate(52.674 89.373)" fill="#f4486d"/><path d="M9.567.37A189.437,189.437,0,0,1,5.022,30.647a6.613,6.613,0,0,0-.8-.187S-7.972,6.262,9.084,0C9.077-.008,9.249.12,9.567.37Z" transform="translate(52.68 89.385)" opacity="0.1"/><path d="M38.745,124.425q-1.766,6.968-4.14,14.3s-7.51,7.823-25.651,0a137.594,137.594,0,0,1-3.806-13.795C.76,105.83-4.5,69.436,6.71,32.056A139.137,139.137,0,0,1,20.835,0s9.579,11,16.61,32.049S48.95,84.207,38.745,124.425Z" transform="translate(17.26 0)" fill="#e3e8f4"/><circle cx="15.06" cy="15.06" r="15.06" transform="translate(24.559 46.67)" fill="#2c3551"/><path d="M21.36,10.678A10.681,10.681,0,0,1,3.909,18.939a10.793,10.793,0,0,1-2-2.172,10.515,10.515,0,0,1-.69-1.133A10.66,10.66,0,0,1,0,10.678v-.254A10.694,10.694,0,0,1,7.779.391,11.047,11.047,0,0,1,10.353,0h.32A10.681,10.681,0,0,1,21.36,10.678Z" transform="translate(28.94 51.061)" fill="#79cfcd"/><path d="M30.744,32.049C13.656,40.23,0,32.049,0,32.049A139.136,139.136,0,0,1,14.136,0S23.715,11,30.744,32.049Z" transform="translate(23.959 0)" fill="#f4486d"/><path d="M33.6,0q-1.2,4.718-2.67,9.6-.7,2.328-1.472,4.694s-7.51,7.824-25.651,0c0,0-.589-1.659-1.472-4.694C1.68,7.307.858,4.235,0,.5A45.515,45.515,0,0,0,16.339,3.379,45.014,45.014,0,0,0,33.6,0Z" transform="translate(22.4 124.425)" fill="#f4486d"/><path d="M28.594,0q-.7,2.328-1.472,4.694s-7.51,7.824-25.651,0C1.472,4.694.883,3.035,0,0,0,0,18.487,5.319,28.594,0Z" transform="translate(24.74 134.023)" fill="#e3e8f4"/><path d="M7.781.391,7.758.408,0,10.425v.254a10.66,10.66,0,0,0,1.217,4.956L10.359,0Z" transform="translate(28.944 51.046)" fill="#fff" opacity="0.2"/><path d="M8.356.781,2,10.3A10.792,10.792,0,0,1,0,8.125L7.569,0Z" transform="translate(30.847 59.696)" fill="#fff" opacity="0.2"/><path d="M13.022,138.717a137.822,137.822,0,0,1-3.806-13.795c-4.388-19.1-9.651-55.493,1.562-92.874A139.649,139.649,0,0,1,23.152,3.013C21.729,1.015,20.839,0,20.839,0A139.123,139.123,0,0,0,6.71,32.047C-4.5,69.428.76,105.822,5.148,124.921a137.825,137.825,0,0,0,3.806,13.795c7.168,3.089,12.674,3.736,16.715,3.391A39.775,39.775,0,0,1,13.022,138.717Z" transform="translate(17.249 0.001)" fill="#fff" opacity="0.2"/></g></svg>