<svg xmlns="http://www.w3.org/2000/svg" width="34.224" height="34.223" viewBox="0 0 34.224 34.223"><path d="M17.112,0A17.112,17.112,0,1,0,34.224,17.112,17.112,17.112,0,0,0,17.112,0Zm4.793,30.148c-.1-1.339-.209-3-.215-3.669a3.246,3.246,0,0,0-1.343-2.664c4.942-.414,7.294-3.145,7.463-6.755a6.758,6.758,0,0,0-2.127-5.322,29.24,29.24,0,0,0-.148-4.222c-1.114-.321-3.713,1.051-4.439,1.638a13.812,13.812,0,0,0-7.558,0c-1.615-1.136-3.453-1.837-4.455-1.642a5.329,5.329,0,0,0-.15,4.219c-1.191,1.089-2.853,2.429-2.4,5.236.724,4.116,3.62,6.337,8.283,6.88a1.51,1.51,0,0,0-1.246,1.267c-3.131,1.292-4.027-.8-4.422-1.342-1.314-1.627-2.494-1.155-2.567-1.129a.206.206,0,0,0-.117.178c.066.351.782.707.817.736a6.087,6.087,0,0,1,1.551,2.4c1.391,2.288,4.626,1.339,4.657,1.358,0,.2-.022,1.883-.042,3.194a13.906,13.906,0,1,1,8.461-.362Z" fill="#2b414d"/></svg>