<svg xmlns="http://www.w3.org/2000/svg" width="34.229" height="34.227" viewBox="0 0 34.229 34.227"><path d="M25.619,40.415a17.114,17.114,0,1,1,17.107-16.96A17.1,17.1,0,0,1,25.619,40.415ZM25.612,7.532a15.77,15.77,0,1,0,15.757,15.9A15.745,15.745,0,0,0,25.612,7.532Z" transform="translate(-8.498 -6.187)" fill="#2b414d"/><path d="M118.918,142.794a1.721,1.721,0,0,1,1.862,1.563c.014.246,0,.5,0,.751a.393.393,0,0,0-.215.1l-2.277,1.611q-3.811,2.58-7.614,5.16a3.273,3.273,0,0,0-.768.567c-.118.02-.194-.055-.277-.116l-6.154-4.225c-.7-.478-1.391-.956-2.146-1.468v6.293q0,2.59.014,5.181c0,.048-.007.1-.007.143a1.926,1.926,0,0,1-2.381-1.324,1.878,1.878,0,0,1-.048-.437c0-4.007.007-8.02-.007-12.027a1.755,1.755,0,0,1,1.876-1.775,1.271,1.271,0,0,0,.1.1q4.371,3.194,8.735,6.389a.3.3,0,0,0,.436-.007q2.72-1.986,5.448-3.959C116.633,144.48,117.775,143.634,118.918,142.794Z" transform="translate(-92.729 -133.465)" fill="#2b414d"/><path d="M133.914,212.374c-.007-1.727-.007-3.454-.014-5.181V200.9l2.116,1.468,6.068,4.225c.082.055.157.13.273.116.014.15.15.191.253.259,2.321,1.611,4.641,3.208,6.955,4.832a3.341,3.341,0,0,1,.86.655c-.068.089-.164.068-.253.068q-8.068,0-16.136-.007c.048-.068.1-.13.143-.2a.452.452,0,0,0,.341-.273,1.081,1.081,0,0,0,.635-.444,1.486,1.486,0,0,0-.648.43.452.452,0,0,0-.341.273A2,2,0,0,0,133.914,212.374Zm4.089-2.73h.068c.089-.048.2-.068.2-.2a.139.139,0,0,0,.137-.068l.068-.068a.139.139,0,0,0,.136-.068c.007-.014.02-.02.027-.034-.014.007-.02.02-.034.027a.139.139,0,0,0-.137.068l-.068.068a.139.139,0,0,0-.137.068.213.213,0,0,0-.2.137c-.02.027-.041.048-.061.075a.068.068,0,0,0-.034.027A.068.068,0,0,0,138,209.644Zm-.41.273a.139.139,0,0,0,.137-.068c.055-.007.109-.014.1-.082a.031.031,0,0,0-.02-.02c-.075-.007-.082.048-.089.1a.119.119,0,0,0-.13.068c-.027.02-.048.041-.075.061a.139.139,0,0,0-.137.068l-.068.068a.139.139,0,0,0-.137.068.224.224,0,0,0-.2.137.643.643,0,0,1-.068.068c-.007.014-.02.02-.027.034.014-.007.02-.02.034-.027a.139.139,0,0,0,.137-.068.133.133,0,0,0,.137-.137.139.139,0,0,0,.136-.068l.068-.068a.139.139,0,0,0,.137-.068A.324.324,0,0,0,137.593,209.917Zm-1.092.751c-.055.007-.109.014-.1.089a.031.031,0,0,0,.02.02c.068,0,.075-.055.082-.109a.133.133,0,0,0,.143-.061c.055-.007.109-.014.1-.089a.031.031,0,0,0-.02-.02c-.075-.007-.082.048-.089.1A.133.133,0,0,0,136.5,210.667Zm-.894.607a.235.235,0,0,0-.2.137c-.048.014-.109.02-.1.089a.031.031,0,0,0,.02.02c.068.007.082-.048.1-.1.1,0,.191-.014.2-.137a.145.145,0,0,0,.137-.068.235.235,0,0,0,.2-.136c.048-.014.109-.014.1-.089a.031.031,0,0,0-.02-.02c-.075-.007-.082.048-.089.1-.1,0-.191.007-.2.137A.181.181,0,0,0,135.606,211.275Zm.669-.389c-.007-.02-.007-.048-.02-.055a.057.057,0,0,0-.055.014c-.02.027-.014.061.027.061C136.234,210.913,136.255,210.9,136.275,210.886Z" transform="translate(-125.191 -187.62)" fill="#e6e3d6"/><path d="M144.1,142.907q-1.718,1.259-3.443,2.519c-1.819,1.324-3.644,2.635-5.463,3.959a.3.3,0,0,1-.437.007q-4.373-3.2-8.76-6.389a1.27,1.27,0,0,1-.1-.1q5.685,0,11.377-.007Q140.682,142.91,144.1,142.907Z" transform="translate(-117.887 -133.574)" fill="#f6f4ec"/><path d="M265.868,213.374a3.342,3.342,0,0,0-.86-.655c-2.314-1.618-4.641-3.222-6.955-4.832-.1-.068-.232-.109-.253-.259a3.232,3.232,0,0,1,.758-.567q3.747-2.59,7.508-5.16,0,5.764.007,11.528A1.138,1.138,0,0,1,265.868,213.374Z" transform="translate(-240.582 -188.551)" fill="#b6b5ac"/><path d="M379.007,190.242q0-5.764-.007-11.528l2.246-1.611a.346.346,0,0,1,.212-.1c.007,1.263.014,2.519.014,3.781v7.392c0,.171,0,.341-.007.512a1.415,1.415,0,0,1-1.27,1.481A3.873,3.873,0,0,1,379.007,190.242Z" transform="translate(-353.466 -165.35)" fill="#2b414d"/><path d="M134.28,367.914c-.048.068-.1.13-.143.2a.909.909,0,0,0-.137.007c0-.048.007-.1.007-.143.089-.027.171-.048.259-.075Z" transform="translate(-125.356 -343.223)" fill="#c1c0b6"/><path d="M142.9,358.03a1.548,1.548,0,0,1,.648-.43,1.081,1.081,0,0,1-.635.444Z" transform="translate(-133.642 -333.626)" fill="#c1c0b6"/><path d="M138.255,363.914a.475.475,0,0,1-.341.273l-.014-.014a.463.463,0,0,1,.341-.273Z" transform="translate(-128.987 -339.496)" fill="#c1c0b6"/><path d="M195.2,326c-.007.13-.123.15-.2.2v-.068a.213.213,0,0,1,.2-.137Z" transform="translate(-182.155 -304.182)" fill="#c5c3b9"/><path d="M178.9,337.137a.213.213,0,0,1,.2-.137l.007.007c0,.089-.048.13-.136.137A.256.256,0,0,0,178.9,337.137Z" transform="translate(-167.164 -314.431)" fill="#c3c2b8"/><path d="M161.212,350.007a.224.224,0,0,1-.2.136l-.007-.007c.014-.13.109-.137.2-.137Z" transform="translate(-150.497 -326.544)" fill="#c1c0b6"/><path d="M155.9,353.036a.235.235,0,0,1,.2-.137l.007.014c-.014.13-.1.137-.2.137Z" transform="translate(-145.748 -329.247)" fill="#c1c0b6"/><path d="M173.9,341.495c.007-.055.02-.109.089-.1a.031.031,0,0,1,.02.021c0,.075-.055.075-.1.089Z" transform="translate(-162.509 -318.523)" fill="#c1c0b6"/><path d="M170.509,344.059c-.007.055-.014.109-.089.1a.031.031,0,0,1-.02-.02c0-.082.055-.082.109-.082Z" transform="translate(-159.25 -321.006)" fill="#c1c0b6"/><path d="M167.544,346.511c-.014.007-.034.027-.048.027-.034-.007-.048-.034-.027-.061a.053.053,0,0,1,.055-.014A.164.164,0,0,1,167.544,346.511Z" transform="translate(-156.511 -323.247)" fill="#c1c0b6"/><path d="M163.9,348.5c.007-.055.02-.1.089-.1a.031.031,0,0,1,.02.021c.007.075-.055.075-.1.089Z" transform="translate(-153.197 -325.054)" fill="#c1c0b6"/><path d="M154.509,354.981c-.014.055-.021.1-.1.1a.031.031,0,0,1-.02-.02c-.007-.075.055-.075.1-.089C154.5,354.967,154.509,354.981,154.509,354.981Z" transform="translate(-144.344 -331.177)" fill="#c1c0b6"/><path d="M190,330.594c.007-.055.014-.109.089-.1a.031.031,0,0,1,.02.02c0,.075-.055.075-.109.082Z" transform="translate(-177.5 -308.367)" fill="#c3c2b8"/><path d="M201,323.068a.139.139,0,0,1,.137-.068h0a.133.133,0,0,1-.137.068Z" transform="translate(-187.742 -301.386)" fill="#c5c3b9"/><path d="M198.043,325a.139.139,0,0,1-.137.068l-.007-.007a.158.158,0,0,1,.143-.061Z" transform="translate(-184.856 -303.25)" fill="#c5c3b9"/><path d="M185,334.068a.139.139,0,0,1,.137-.068l.007.007a.158.158,0,0,1-.143.061Z" transform="translate(-172.844 -311.636)" fill="#c3c2b8"/><path d="M182,336.068a.139.139,0,0,1,.137-.068l.007.007a.145.145,0,0,1-.143.061Z" transform="translate(-170.051 -313.5)" fill="#c3c2b8"/><path d="M177.968,339h.075a.145.145,0,0,1-.137.068l-.007-.007A.612.612,0,0,0,177.968,339Z" transform="translate(-166.233 -316.295)" fill="#c1c0b6"/><path d="M172.043,342.907a.139.139,0,0,1-.137.068l-.007-.007a.139.139,0,0,1,.137-.068Z" transform="translate(-160.646 -319.929)" fill="#c1c0b6"/><path d="M158.9,351.968a.139.139,0,0,1,.137-.068l.007.007a.139.139,0,0,1-.137.068Z" transform="translate(-148.542 -328.315)" fill="#c1c0b6"/><path d="M188.137,332a.133.133,0,0,1-.137.068h0c.027-.061.075-.068.137-.068Z" transform="translate(-175.637 -309.772)" fill="#c3c2b8"/><path d="M203,322.627c.014-.007.02-.02.034-.027-.014.007-.02.02-.034.027Z" transform="translate(-189.605 -301.014)" fill="#c5c3b9"/><path d="M199.975,324l-.068.068-.007-.007c.027-.02.048-.041.075-.061Z" transform="translate(-186.718 -302.318)" fill="#c5c3b9"/><path d="M194.068,328v.068a.227.227,0,0,1-.068,0h0A.323.323,0,0,1,194.068,328Z" transform="translate(-181.224 -306.045)" fill="#c3c2b8"/><path d="M193.534,329c-.014.007-.02.02-.034.027.014-.007.02-.02.034-.027Z" transform="translate(-180.759 -306.977)" fill="#c3c2b8"/><path d="M184,335.068l.068-.068.007.007c-.027.02-.048.041-.075.061Z" transform="translate(-171.913 -312.568)" fill="#c3c2b8"/><path d="M177.534,340c-.014.007-.02.021-.034.027.014-.007.02-.02.034-.027Z" transform="translate(-165.861 -317.227)" fill="#c1c0b6"/><path d="M186.975,333l-.068.068-.007-.007c.027-.021.048-.041.075-.061Z" transform="translate(-174.613 -310.704)" fill="#c3c2b8"/></svg>