<svg xmlns="http://www.w3.org/2000/svg" width="34.224" height="34.223" viewBox="0 0 34.224 34.223"><path d="M36.912,23.88h-10.2a2.956,2.956,0,0,0-2.953,2.953v10.2a2.956,2.956,0,0,0,2.953,2.953h10.2a2.956,2.956,0,0,0,2.953-2.953v-10.2A2.956,2.956,0,0,0,36.912,23.88Zm-5.1,13.355a5.3,5.3,0,1,1,5.3-5.3A5.308,5.308,0,0,1,31.812,37.235Zm5.473-9.508a1.254,1.254,0,1,1,1.254-1.254A1.256,1.256,0,0,1,37.284,27.727Z" transform="translate(-14.7 -14.775)" fill="#2b414d"/><path d="M39.911,36.971a3.062,3.062,0,1,0,3.061,3.061A3.065,3.065,0,0,0,39.911,36.971Z" transform="translate(-22.799 -22.874)" fill="#2b414d"/><path d="M17.112,0A17.112,17.112,0,1,0,34.224,17.112,17.112,17.112,0,0,0,17.112,0ZM27.4,22.258a5.2,5.2,0,0,1-5.193,5.193h-10.2a5.2,5.2,0,0,1-5.193-5.193v-10.2a5.2,5.2,0,0,1,5.193-5.193h10.2A5.2,5.2,0,0,1,27.4,12.058Z" fill="#2b414d"/></svg>